<?xml version="1.0" encoding="iso-8859-1"?>
<!-- Generator: Adobe Illustrator 18.1.1, SVG Export Plug-In . SVG Version: 6.00 Build 0)  -->
<svg version="1.1" xmlns="http://www.w3.org/2000/svg" xmlns:xlink="http://www.w3.org/1999/xlink" x="0px" y="0px"
	 viewBox="0 0 500 500" style="enable-background:new 0 0 500 500;" xml:space="preserve">
<g id="Layer_3">
	<path style="fill:#4B83A6;" d="M500,249.992C500,388.07,388.07,500,250.006,500C111.928,500,0,388.07,0,249.992
		C0,111.93,111.928,0,250.006,0C388.07,0,500,111.93,500,249.992z"/>
</g>
<g id="Layer_1">
	<g>
		<defs>
			<path id="SVGID_1_" d="M500,249.992C500,388.07,388.07,500,250.006,500C111.928,500,0,388.07,0,249.992
				C0,111.93,111.928,0,250.006,0C388.07,0,500,111.93,500,249.992z"/>
		</defs>
		<clipPath id="SVGID_2_">
			<use xlink:href="#SVGID_1_"  style="overflow:visible;"/>
		</clipPath>
		<g style="clip-path:url(#SVGID_2_);">
			<path style="fill:#366075;" d="M411.59,389.446c14.104-13.051,23.073-31.545,23.073-52.267c0-27.403-15.433-51.187-38.057-63.187
				c1.298-8.041,1.994-16.26,1.994-24.641c0-40.347-15.68-77.011-41.273-104.291l-97.562,95.475h-0.79v-21.664h-21.664
				l-14.583,15.602l29.645-51.588l54.603-54.603c2.489-0.727,3.943-4.082,1.145-5.97L268.44,67.184
				c-1.84-2.553-5.335-4.036-7.794-3.31l-30.107,33.803c-36.836,3.743-69.713,20.676-94.053,45.898L-58.517,338.571
				c-28.747,27.742-46.701,66.587-46.701,109.67c0,84.186,68.259,152.446,152.446,152.446c23.552,0,45.835-5.321,65.737-14.845
				c13.005,13.36,31.192,21.68,51.311,21.68c20.738,0,39.248-8.969,52.315-23.072L411.59,389.446z"/>
		</g>
	</g>
</g>
<g id="Guides_For_Artboard">
	<g>
		<path style="fill:#FFFFFF;" d="M140.15,266.446v17.319h65.258v-20.204h-37.252c7.5-5.783,33.789-26.288,33.789-54.742
			c0-14.304-10.114-27.279-29.737-27.279c-17.769,0-28.609,9.96-31.78,24.248l18.062,8.242c2.166-6.062,4.903-10.825,11.104-10.825
			c5.785,0,9.264,2.738,9.264,9.959C178.857,230.933,156.604,250.247,140.15,266.446z"/>
		<polygon style="fill:#FFFFFF;" points="258.975,283.765 258.975,262.123 270.822,262.123 270.822,240.443 258.975,240.443 
			258.975,218.778 237.311,218.778 237.311,240.443 219.264,240.443 252.326,182.669 227.506,182.669 191.399,245.934 
			191.399,262.123 237.311,262.123 237.311,283.765 		"/>
		<polygon style="fill:#FFFFFF;" points="318.559,192.49 306.931,192.49 261.558,331.612 273.281,331.612 		"/>
		<path style="fill:#FFFFFF;" d="M396.607,273.9c1.298-8.041,1.994-16.261,1.994-24.643c0-40.345-15.68-77.011-41.273-104.289
			c-4.98,7.129-9.495,15.138-11.367,22.887c18.109,22.206,28.964,50.536,28.964,81.402c0,5.799-0.386,11.522-1.129,17.127
			c-3.463-0.496-7.005-0.782-10.624-0.782c-39.479,0-71.474,31.989-71.474,71.483c0,10.701,2.366,20.845,6.587,29.97
			c-15.944,7.082-33.588,11.01-52.161,11.01c-71.149,0-128.785-57.681-128.785-128.808c0-71.135,57.635-128.816,128.785-128.816
			c8.397,0,16.61,0.836,24.541,2.382l-24.541,17.846c1.856,2.583,5.367,4.052,7.81,3.325l53.042-15.805
			c2.489-0.727,3.943-4.082,1.145-5.968l-39.681-55.13c-1.84-2.551-5.335-4.036-7.794-3.31l15.279,35.97
			c-9.62-1.902-19.579-2.953-29.8-2.953c-84.186,0-152.444,68.258-152.444,152.46c0,84.178,68.258,152.438,152.444,152.438
			c23.552,0,45.837-5.321,65.738-14.846c13.005,13.36,31.191,21.68,51.309,21.68c39.465,0,71.491-31.979,71.491-71.444
			C434.664,309.683,419.231,285.9,396.607,273.9z M392.276,305.694l-30,75.65h-20.738l8.18-20.226l19.903-49.331H358.75h-24.681
			v-19.02h33.311h24.88h0.016V305.694z"/>
	</g>
</g>
</svg>
