<?xml version="1.0" encoding="iso-8859-1"?>
<!-- Generator: Adobe Illustrator 18.1.1, SVG Export Plug-In . SVG Version: 6.00 Build 0)  -->
<svg version="1.1" id="Layer_1" xmlns="http://www.w3.org/2000/svg" xmlns:xlink="http://www.w3.org/1999/xlink" x="0px" y="0px"
	 viewBox="0 0 86.404 243.715" style="enable-background:new 0 0 86.404 243.715;" xml:space="preserve">
<path style="fill:#16A61E;" d="M3.928,79.74c0.213,39.759,11.744,96.093,64.863,140.71l-6.094-34.703
	c-0.004-1.001,0.749-1.844,1.744-1.955c0.997-0.109,1.915,0.544,2.132,1.521l19.784,56.009c0.173,0.768-0.131,1.562-0.767,2.021
	c-0.637,0.46-1.487,0.496-2.159,0.089c-0.107-0.062-11.087-10.645-42.744-25.727l0.286-7.695
	c25.337,14.468,34.698,24.297,40.563,27.744L67.36,203.363l5.364,21.245c0.003,0.757-0.432,1.446-1.113,1.773
	c-0.681,0.328-1.486,0.272-2.08-0.242C14.264,178.531,0.199,121.06,0.002,79.62C-0.21,34.806,13.253,0.343,13.388,0l7.436,2.938
	C20.692,3.276,3.692,35.654,3.928,79.74z"/>
</svg>
