<?xml version="1.0" encoding="iso-8859-1"?>
<!-- Generator: Adobe Illustrator 18.1.1, SVG Export Plug-In . SVG Version: 6.00 Build 0)  -->
<svg version="1.1" id="Layer_1" xmlns="http://www.w3.org/2000/svg" xmlns:xlink="http://www.w3.org/1999/xlink" x="0px" y="0px"
	 viewBox="0 787.215 800 200" style="enable-background:new 0 787.215 800 200;" xml:space="preserve">
<g>
	<rect y="787.215" style="fill:none;" width="200" height="200"/>
	<path style="fill:#FFFFFF;" d="M135.342,917.007c-1.552-5.104-14.096-12.014-19.926-14.56c-0.398-0.172-0.85-0.164-1.238,0.024
		l-14.142,6.836l-12.674-6.806c-0.38-0.204-0.834-0.232-1.24-0.076c-5.078,1.976-19.908,8.912-21.392,14.646
		c-1.06,4.094-1.482,6.102-1.5,6.184c-0.02,0.1-0.032,0.202-0.032,0.304c0,2.012,1.012,2.964,1.858,3.408
		c1.248,0.652,2.746,0.598,4.288,0.568c0.33-0.006,0.67-0.012,1.01-0.012h59.29c0.446,0,0.886,0.016,1.312,0.032
		c0.434,0.016,0.854,0.03,1.254,0.03c1.134,0,4.59,0,4.59-3.826C136.8,922.201,136.658,921.335,135.342,917.007z M132.212,924.617
		c-0.366,0-0.75-0.014-1.148-0.028c-0.46-0.016-0.938-0.032-1.418-0.032h-59.29c-0.36,0-0.716-0.006-1.064,0
		c-0.316,0.006-0.628,0-0.93,0c-0.004,0-0.006,0-0.01,0c-0.408,0-1.458,0.01-1.92-0.23c-0.092-0.048-0.242-0.116-0.266-0.626
		c0.12-0.55,0.56-2.512,1.434-5.89c0.866-3.346,11.412-9.332,18.964-12.374l12.734,6.838c0.416,0.226,0.918,0.236,1.346,0.028
		l14.204-6.866c8.348,3.752,16.826,9.698,17.656,12.43c1.266,4.166,1.33,4.766,1.33,5.886
		C133.836,924.435,133.836,924.617,132.212,924.617z"/>
	<path style="fill:#FFFFFF;" d="M84.438,885.005c0.8,1.998,1.712,3.43,2.67,4.938c0.27,0.426,0.546,0.858,0.822,1.312
		c0.962,1.578,1.938,2.76,3.024,3.656c-0.074,1.46-0.256,3.256-0.584,4.59c-0.196,0.794,0.29,1.598,1.086,1.794
		c0.794,0.196,1.598-0.29,1.794-1.086c0.442-1.802,0.65-4.266,0.696-5.97c0.014-0.5-0.226-0.974-0.636-1.258
		c-1.012-0.7-1.916-1.74-2.848-3.27c-0.288-0.47-0.572-0.918-0.852-1.358c-1.028-1.614-1.916-3.01-2.67-5.106
		c-0.196-0.546-0.766-0.93-1.342-0.98c-0.144-0.012-0.536-0.246-0.746-0.628c-1.496-2.746-2.138-6.942-1.858-7.798
		c0.038-0.024,0.204-0.082,0.566-0.076c0.422,0.032,0.806-0.146,1.096-0.438c0.288-0.29,0.444-0.688,0.43-1.098
		c-0.314-8.504,2.816-13.074,5.498-15.412c0.492-0.43,0.646-1.13,0.378-1.726c-0.018-0.04-0.038-0.08-0.058-0.116
		c1.264-0.85,3.388-0.794,3.414-0.788l0.082-1.48l1.22-0.84c-0.098-0.224,0.1-0.766,0.38-1.26c0.84,0.702,1.964,1.206,3.016,1.496
		c3.044,0.844,5.254,1.712,6.624,2.316c6.318,2.504,9.756,8.996,9.43,17.816c-0.014,0.398,0.132,0.784,0.404,1.074
		c0.272,0.288,0.65,0.456,1.048,0.464c0.274,0.006,0.412,0.06,0.404,0.034c0.318,0.904-0.322,5.106-1.818,7.85
		c-0.212,0.386-0.596,0.626-0.742,0.648c-0.542,0.076-0.998,0.442-1.186,0.954c-0.766,2.072-1.698,3.532-2.686,5.078
		c-0.3,0.468-0.602,0.944-0.908,1.444c-0.898,1.476-1.716,2.472-2.572,3.134c-0.366,0.282-0.58,0.72-0.576,1.184
		c0.01,1.35,0.12,3.96,0.754,6.286c0.18,0.658,0.778,1.092,1.43,1.092c0.13,0,0.26-0.018,0.392-0.052
		c0.79-0.216,1.256-1.032,1.04-1.82c-0.462-1.688-0.598-3.644-0.636-4.836c0.926-0.844,1.798-1.958,2.7-3.44
		c0.294-0.482,0.586-0.94,0.876-1.392c0.926-1.45,1.882-2.946,2.702-4.962c0.814-0.368,1.554-1.048,2.014-1.892
		c1.726-3.166,2.722-8.248,2.012-10.258c-0.286-0.81-0.868-1.404-1.668-1.728c-0.014-9.39-4.19-16.602-11.272-19.406
		c-1.408-0.62-3.76-1.548-6.976-2.438c-1.414-0.392-2.094-1.032-2.164-1.152c-0.066-0.396-0.288-0.75-0.618-0.98
		c-0.33-0.23-0.742-0.316-1.134-0.234c-1.294,0.258-2.426,1.992-2.872,3.094c-0.184,0.458-0.302,0.906-0.348,1.334
		c-1.962,0.276-4.708,1.22-5.47,3.988c-0.086,0.25-0.114,0.518-0.07,0.778c-2.568,2.874-5.018,7.552-5.03,14.938
		c-0.898,0.302-1.55,0.92-1.858,1.798c-0.712,2.006,0.284,7.084,2.01,10.252C82.744,883.961,83.554,884.665,84.438,885.005z"/>
	<rect x="400" y="787.215" style="fill:none;" width="200" height="200"/>
	<path style="fill:#FFFFFF;" d="M532.308,879.615l-11.208,7.642v-15.44c0-0.832-0.674-1.508-1.508-1.508h-39.186
		c-0.834,0-1.508,0.674-1.508,1.508v15.44l-11.208-7.642c-0.688-0.468-1.626-0.292-2.094,0.396c-0.47,0.688-0.292,1.626,0.396,2.094
		l28.176,19.21c1.636,1.114,3.732,1.672,5.83,1.672s4.194-0.558,5.83-1.672l28.176-19.21c0.688-0.468,0.866-1.406,0.396-2.094
		C533.934,879.323,532.996,879.147,532.308,879.615z M504.132,898.825c-2.24,1.528-6.022,1.526-8.262,0l-14.186-9.672
		c0.134-0.226,0.232-0.476,0.232-0.758v-15.072h36.172v15.072c0,0.282,0.098,0.532,0.232,0.758L504.132,898.825z"/>
	<path style="fill:#FFFFFF;" d="M538.4,873.833l-32.702-25.156c-1.534-1.18-3.556-1.828-5.698-1.828s-4.164,0.65-5.696,1.828
		l-32.718,25.168c-1.3,0.998-2.28,3.042-2.28,4.754v41.446c0,4.154,3.38,7.536,7.536,7.536h66.314c4.154,0,7.536-3.38,7.536-7.536
		v-41.446C540.692,876.887,539.706,874.839,538.4,873.833z M537.678,920.045c0,2.494-2.028,4.522-4.522,4.522h-66.314
		c-2.494,0-4.522-2.028-4.522-4.522v-41.446c0-0.766,0.544-1.936,1.1-2.364l32.718-25.17c0.994-0.764,2.4-1.204,3.86-1.204
		c1.458,0,2.866,0.438,3.86,1.204l32.702,25.156c0.562,0.434,1.116,1.61,1.116,2.378v41.446H537.678z"/>
	<path style="fill:#FFFFFF;" d="M510.55,879.353h-21.1c-0.834,0-1.508,0.674-1.508,1.508c0,0.832,0.674,1.508,1.508,1.508h21.1
		c0.832,0,1.508-0.674,1.508-1.508S511.382,879.353,510.55,879.353z"/>
	<path style="fill:#FFFFFF;" d="M510.55,885.381h-21.1c-0.834,0-1.508,0.674-1.508,1.508s0.674,1.508,1.508,1.508h21.1
		c0.832,0,1.508-0.674,1.508-1.508S511.382,885.381,510.55,885.381z"/>
	<rect x="200" y="787.215" style="fill:none;" width="200" height="200"/>
	<path style="fill:#FFFFFF;" d="M340.868,913.645c-0.218-1.474-1.174-2.774-2.926-3.97l-18.056-12.354
		c-0.932-0.634-2.016-0.972-3.136-0.972c-1.744,0-3.376,0.822-4.376,2.21l-4.686,6.634c-0.368,0.514-0.454,1.148-0.478,1.758
		c-1.792,0.264-6.988,0.102-15.512-8.42c-8.244-8.232-12.148-14.286-11.642-18.024c0.092-0.044,0.158-0.134,0.24-0.196
		c0.43-0.12,0.824-0.266,1.144-0.514l6.47-4.902c2.31-1.742,2.762-5.13,1.004-7.562l-12.94-17.646
		c-2.49-3.39-5.418-3.746-8.56-1.044c-1.988,1.704-5.286,5.818-6.652,8.294c-0.75,1.326-1.062,2.694-0.928,4.072
		c-0.478,1.982-1.52,7.824,0.216,15.972c2.358,11.074,8.736,21.706,18.956,31.6c17.088,16.534,32.098,19.004,39.524,19.006l0,0
		c4.368,0,7.412-0.802,8.816-1.392c1.304,0.056,2.594-0.312,3.85-1.066c2.434-1.442,6.434-4.874,8.07-6.926
		C340.56,916.599,341.082,915.107,340.868,913.645z M336.886,916.289c-1.41,1.768-5.134,4.962-7.25,6.212
		c-0.286,0.172-0.57,0.296-0.85,0.4c-2.06-0.894-5.686-2.79-6.772-4.148c-0.526-0.658-1.488-0.764-2.144-0.238
		c-0.658,0.528-0.766,1.488-0.238,2.146c0.958,1.198,2.792,2.394,4.466,3.324c-1.338,0.29-3.198,0.546-5.568,0.546l0,0
		c-6.964-0.002-21.086-2.36-37.402-18.148c-23.268-22.526-18.848-42.672-18.268-44.894c0.052-0.198,0.062-0.406,0.032-0.608
		c-0.12-0.808,0.052-1.608,0.534-2.458c1.194-2.162,4.264-5.998,5.976-7.466c0.788-0.678,1.488-1.036,2.024-1.036
		c0.23,0,0.932,0,2.086,1.57l12.934,17.638c0.786,1.086,0.616,2.58-0.378,3.33l-6.402,4.856c-0.026,0.012-0.07,0.026-0.114,0.04
		c-1.688-1.294-3.996-3.248-4.724-4.364c-0.46-0.706-1.408-0.904-2.112-0.446c-0.706,0.46-0.904,1.406-0.444,2.112
		c0.986,1.512,3.368,3.512,4.892,4.708c-1.216,4.972,2.646,11.608,12.374,21.322c7.752,7.75,13.402,9.376,16.778,9.376
		c1.48,0,2.588-0.33,3.132-0.638c0.408-0.232,0.688-0.64,0.756-1.104c0.03-0.208,0.042-0.506,0.044-0.836
		c0.002-0.184,0.006-0.498,0.028-0.672l4.58-6.482c0.696-0.968,2.252-1.21,3.306-0.492l18.054,12.352
		c0.996,0.682,1.544,1.318,1.628,1.896C337.932,914.655,337.61,915.393,336.886,916.289z"/>
	<path style="fill:#FFFFFF;" d="M298.258,864.429c11.802,3.604,21.038,12.792,24.704,24.576c0.204,0.654,0.806,1.072,1.456,1.072
		c0.15,0,0.304-0.022,0.454-0.068c0.804-0.25,1.254-1.106,1.004-1.91c-3.968-12.75-13.958-22.69-26.728-26.588
		c-0.806-0.254-1.658,0.208-1.906,1.014C296.998,863.331,297.452,864.183,298.258,864.429z"/>
	<path style="fill:#FFFFFF;" d="M300.354,853.121c17.696,4.184,31.228,18.446,34.468,36.332c0.134,0.736,0.776,1.254,1.5,1.254
		c0.09,0,0.182-0.008,0.274-0.024c0.83-0.15,1.38-0.944,1.23-1.774c-3.458-19.082-17.89-34.296-36.77-38.758
		c-0.818-0.186-1.642,0.314-1.836,1.134S299.532,852.927,300.354,853.121z"/>
	<rect x="600" y="787.215" style="fill:none;" width="200" height="200"/>
	<g>
		<path style="fill:#FFFFFF;" d="M700,929.949l-5.374-8.144c-0.052-0.082-5.578-8.446-11.222-18.558
			c-7.934-14.216-11.79-24.154-11.79-30.378c0-15.654,12.734-28.388,28.386-28.388s28.386,12.734,28.386,28.388
			c0,6.224-3.856,16.16-11.79,30.378c-5.342,9.57-10.628,17.656-11.214,18.546L700,929.949z M700,847.845
			c-13.798,0-25.022,11.224-25.022,25.024c0,5.558,3.824,15.228,11.362,28.74c5.582,10.002,11.038,18.262,11.092,18.344l2.568,3.89
			l2.566-3.89c0.584-0.886,5.81-8.88,11.094-18.346c7.646-13.704,11.362-23.106,11.362-28.74
			C725.022,859.069,713.798,847.845,700,847.845z M700,888.211c-8.56,0-15.526-6.964-15.526-15.524s6.964-15.526,15.526-15.526
			c8.56,0,15.524,6.964,15.524,15.526C715.524,881.247,708.56,888.211,700,888.211z M700,860.527
			c-6.706,0-12.162,5.454-12.162,12.162c0,6.704,5.454,12.16,12.162,12.16c6.704,0,12.16-5.454,12.16-12.16
			C712.16,865.981,706.704,860.527,700,860.527z"/>
	</g>
</g>
</svg>
