<?xml version="1.0" encoding="iso-8859-1"?>
<!-- Generator: Adobe Illustrator 18.1.1, SVG Export Plug-In . SVG Version: 6.00 Build 0)  -->
<svg version="1.1" id="Layer_1" xmlns="http://www.w3.org/2000/svg" xmlns:xlink="http://www.w3.org/1999/xlink" x="0px" y="0px"
	 viewBox="0 0 2400 200" style="enable-background:new 0 0 2400 200;" xml:space="preserve">
<g>
	<rect x="1200" style="fill:none;" width="200" height="200"/>
	<rect x="1400" style="fill:none;" width="200" height="200"/>
	<rect x="1600" style="fill:none;" width="200" height="200"/>
	<rect x="1800" style="fill:none;" width="200" height="200"/>
	<rect x="2000" style="fill:none;" width="200" height="200"/>
	<rect x="2200" style="fill:none;" width="200" height="200"/>
	<rect style="fill:none;" width="200" height="200"/>
	<rect x="200" style="fill:none;" width="200" height="200"/>
	<rect x="400" style="fill:none;" width="200" height="200"/>
	<rect x="600" style="fill:none;" width="200" height="200"/>
	<rect x="800" style="fill:none;" width="200" height="200"/>
	<rect x="1000" style="fill:none;" width="200" height="200"/>
	<path style="fill-rule:evenodd;clip-rule:evenodd;fill:#7F8C8D;" d="M2283.661,111.548c0.586-0.873,0.243-1.593,0.372-2.25
		c0.365-1.867,0.949-3.605,2.579-4.784c0.156-0.113,0.29-0.238,0.526-0.163c0.951,0.305,1.947,0.15,2.914,0.264
		c1.135,0.135,2.293,0.248,3.33,0.823c0.556,0.308,0.612,0.822,0.43,1.311c-0.738,1.981-1.728,3.761-3.954,4.421
		c-0.16,0.047-0.357,0.162-0.48,0.111c-1.361-0.568-1.949,0.595-2.44,1.339c-0.317,0.482-0.514,1.458-0.104,2.141
		c0.364,0.607,0.903,0.02,1.394-0.001c0.206,0.171,0.087,0.448,0.147,0.676c0.095,0.358,0.276,0.623,0.664,0.661
		c0.479,0.046,0.318-0.371,0.384-0.596c0.198-0.67,0.598-1.125,1.271-1.337c0.666-0.21,1.331-0.424,1.993-0.645
		c0.362-0.121,0.666-0.068,0.888,0.257c0.402,0.589,0.516,0.118,0.617-0.184c0.119-0.355,0.042-0.704-0.093-1.063
		c-0.349-0.931,0.044-1.636,0.995-1.765c0.498-0.068,0.883-0.362,1.278-0.588c1.181-0.675,2.413-1.275,3.453-2.186
		c0.424-0.372,0.525-0.795,0.413-1.276c-0.089-0.383-0.155-0.761-0.194-1.152c-0.085-0.843,0.272-1.127,1.101-0.811
		c2.319,0.882,4.743,1.133,7.195,1.328c1.899,0.152,3.817,0.515,5.684,0.126c1.618-0.337,2.147,0.676,2.809,1.687
		c0.365,0.558,0.204,0.949-0.387,1.188c-0.647,0.262-1.286,0.559-1.955,0.753c-1.58,0.46-3.156,0.931-4.851,0.666
		c-0.799-0.125-1.621-0.006-2.425,0.125c-0.767,0.124-1.318,0.959-1.079,1.68c0.153,0.46,0.482,0.479,0.873,0.277
		c0.537-0.279,0.539-0.275,1.268-0.078c-1.131,0.2-1.133,0.996-1.139,1.8c-0.002,0.302,0.038,0.591,0.35,0.692
		c0.43,0.139,0.308-0.28,0.402-0.466c0.363-0.719,1.142-1.045,1.966-0.823c0.183,0.049,0.385,0.069,0.573,0.05
		c0.395-0.039,0.526,0.091,0.376,0.474c-0.134,0.342-0.107,0.673,0.173,0.928c0.193,0.175,0.482,0.33,0.631,0.002
		c0.405-0.892,1.29-1.026,2.016-1.466c1.569-0.95,3.365-1.17,5.005-1.855c1.01-0.422,2.106-0.236,3.142-0.492
		c1.227-0.303,1.34-0.474,1.102-1.727c-0.111-0.585-0.364-1.115-0.508-1.679c0.05-0.039,0.106-0.107,0.13-0.098
		c2.14,0.898,4.258,0.129,6.362-0.146c1.227-0.16,2.439-0.316,3.675-0.294c0.467,0.009,0.948,0.119,1.357-0.255
		c0.149-0.137,0.379-0.118,0.556-0.004c0.608,0.392,1.313,0.551,1.994,0.604c1.138,0.089,2.059,0.631,2.802,1.355
		c1.424,1.387,3.072,2.591,3.854,4.553c0.786,1.971,0.833,3.884-0.063,5.827c-0.936,2.029-2.621,3.098-4.594,3.972
		c-5.402,2.395-11.13,2.932-16.905,2.905c-2.935-0.014-5.88,0.35-8.811-0.061c-0.997-0.14-1.995-0.279-2.985-0.464
		c-2.095-0.39-4.253-0.223-6.332-0.702c-1.887-0.436-3.796-0.661-5.721-0.757c-2.989-0.149-5.941-0.801-8.939-0.738
		c-4.701,0.098-9.402,0.278-14.086,0.693c-1.776,0.157-3.553,0.442-5.273,0.977c-0.425,0.132-0.858,0.258-0.745,0.817
		c0.113,0.562,0.575,0.33,0.895,0.278c5.588-0.896,11.233-0.582,16.851-0.727c2.266-0.059,4.56,0.307,6.821,0.673
		c0.302,0.048,0.614,0.06,0.921,0.06c1.617,0.001,3.176,0.395,4.757,0.658c3.158,0.526,6.276,1.244,9.504,1.436
		c2.443,0.145,4.904,0.38,7.338,0.701c2.348,0.309,4.696,0.331,7.042,0.261c2.964-0.089,5.931-0.242,8.874-0.652
		c2.163-0.301,4.329-0.673,6.399-1.344c1.832-0.593,3.452-1.739,5.223-2.496c1.594-0.681,2.762-1.88,3.647-3.163
		c0.936-1.358,1.593-2.998,1.708-4.772c0.199-3.071-0.388-5.958-2.188-8.441c-1.333-1.838-3.086-3.264-5.237-4.214
		c-1.557-0.688-3.281-1.161-4.414-2.629c-0.823-1.065-1.396-2.246-1.882-3.482c-0.471-1.197-0.937-2.395-1.379-3.602
		c-1.076-2.941-2.267-5.831-3.621-8.657c-0.688-1.436-1.667-2.641-2.665-3.854c-2.381-2.897-5.167-5.361-8.211-7.512
		c-1.125-0.795-1.991-1.242-3.248-1.854c-0.502-0.244-1.229-0.637-1.991-1.01c-1.847-0.902-3.534-1.458-5.463-1.866
		c-1.752-0.371-3.463-0.38-5.263-0.42c-0.535-0.012-1.075,0.126-1.6,0.254c-1.582,0.387-3.819,0.762-5.396,1.145
		c-2.441,0.591-3.367,0.897-5.229,1.831c-2.022,1.015-3.999,2.122-6.005,3.17c-0.536,0.28-0.929,0.714-1.354,1.113
		c-0.536,0.502-1.091,0.983-1.789,1.225c-0.416,0.144-0.878,0.373-1.302,0.22c-0.549-0.198-0.157-0.737-0.246-1.114
		c-0.261-1.099-0.897-1.968-1.823-2.504c-1.201-0.696-3.101,0.641-3.279,2.215c-0.028,0.249-0.015,0.504-0.016,0.756
		c-0.003,1.174-0.021,1.209-1.233,1.056c-0.812-0.102-1.619-0.138-2.431-0.058c-1.206,0.119-1.65-0.197-1.676-1.391
		c-0.018-0.797-0.309-1.371-0.867-1.911c-1.149-1.11-2.93-0.692-3.374,0.855c-0.305,1.063-0.237,2.098,0.398,3.065
		c0.562,0.855,0.427,1.086-0.422,1.666c-1.814,1.24-3.686,2.431-4.809,4.432c-0.265,0.473-0.691,0.812-1.146,1.096
		c-1.543,0.963-2.997,2.073-4.659,2.84c-0.954,0.44-1.571,1.263-2.205,2.025c-0.53,0.636-0.141,1.324,0.381,1.784
		c1.168,1.03,2.268,2.198,3.923,2.465c0.055,0.009,0.127,0.011,0.159,0.046c1.37,1.51,3.144,0.899,4.741,0.774
		c2.43-0.191,4.852-0.439,7.294-0.369c0.403,0.011,0.751,0.124,1.107,0.327c0.982,0.559,2.028,0.962,3.176,0.994
		c1.283,0.036,2.463,0.39,3.55,1.068c1.16,0.724,2.293,1.491,3.541,2.069c0.156,0.073,0.327,0.28,0.349,0.444
		c0.192,1.39,1.018,2.591,1.083,4.038c0.07,1.54-1.11,2.901-2.69,2.859c-1.003-0.026-1.368,0.268-1.744,1.495
		c-0.241,0.788-0.138,1.48,0.626,1.984c0.56,0.369,0.614,1.17,1.238,1.517c0.236,0.131,0.415,0.454,0.72,0.28
		c0.295-0.168,0.084-0.449,0.036-0.682c-0.193-0.935,0.645-1.25,1.146-1.656c0.292-0.236,0.857-0.302,1.301-0.437
		C2283.176,110.294,2283.532,110.679,2283.661,111.548L2283.661,111.548z"/>
	<path style="fill-rule:evenodd;clip-rule:evenodd;fill:#7F8C8D;" d="M2162.682,118.509l0.29,0.048c0,0-0.555-0.725-1.401-0.652
		c-0.845,0.072-3.044,0.725-3.044,0.725s-4.807-0.435-5.073-0.604c-0.266-0.169-10.459-2.681-10.459-2.681l0.193-0.29
		c0,0-22.5-5.529-24.095-5.964l-0.016-0.004c0.859,0.002,1.834-0.01,2.805-0.046c2.609-0.097,7.633,0.169,9.977-0.193
		c2.343-0.362,6.305-1.039,6.305-1.039s4.445,0.314,6.401-0.99c0,0-1.425,0.314-2.488,0.483c-1.063,0.169-1.691-0.145-1.884-0.145
		c-0.193,0,2.609-0.556,3.43-0.87c0.067-0.026,0.132-0.056,0.195-0.09c0.242-0.045,0.474-0.103,0.723-0.176
		c0.821-0.242,1.135-0.797,1.135-0.797l-2.536-2.174c0,0,0.193-0.99-0.386-1.28c-0.572-0.286-5.44-3.372-8.588-4.339
		c0.445,0.04,1.101,0.087,1.897,0.087c1.401,0,2.875,0.024,2.875-0.097s-0.241-0.387,0.073-0.386c0.314,0,1.063,0,1.57-0.097
		c0.507-0.097,0.483-0.362,0.483-0.362s0.338-0.242,0.845-0.242s0.652-0.387,0.652-0.387s0.193-0.435,0.555-0.507
		c0.363-0.072,0.338-0.169,1.087-0.362c0.749-0.193,0.853-0.056,0.853-0.056c-0.822-0.483-1.209-0.242-1.692,0.097
		c-0.484,0.338-1.982,0.677-2.563,1.064c-0.58,0.387-2.417,0.774-3.965,0.774c-1.547,0-4.593-0.484-4.593-0.484
		s-3.675-0.967-4.593-1.257c-0.918-0.29-9.331-2.369-11.652-3.191c-2.321-0.822-3.433-0.58-3.433-0.58l-0.58,0.338
		c0,0-0.725,0.048-0.725,0.87c0,0.351-0.124,0.685-0.212,0.96c-4.147-0.211-8.673-0.341-10.279-0.234
		c-2.901,0.193-6.672,0.193-6.672,0.193s-1.209-1.209-2.079-0.822c-0.87,0.387-1.74,0.822-4.351,1.402
		c-2.611,0.58-5.608,1.015-6.188,1.547c-0.58,0.532-0.774,1.305-0.774,1.305s-0.87-0.629-1.499-0.677
		c-0.628-0.048-1.595,0.387-1.885,1.257c-0.081,0.244-0.185,0.552-0.288,0.899c-0.771-0.374-1.493-1.108-2.407-2.039
		c-0.671-0.682-1.437-1.461-2.391-2.286c-10.535-9.111-20.643-20.095-34.206-24.657c7.092,3.138,13.408,7.153,18.959,11.714
		c5.975,4.908,11.532,10.455,16.921,15.935c1.073,1.091,1.917,1.95,2.865,2.368c-0.129,0.648-0.193,1.333-0.081,1.935
		c0.053,0.288,0.189,0.642,0.375,1.026c-0.108-0.018-0.196-0.051-0.262-0.091c-0.021-0.012-0.048-0.09-0.156-0.253
		c-0.789-1.184-3.101-4.653-12.568-8.769c-5.675-2.467-24.709-8.039-25.361,3.042c1.352-10.596,19.468-4.951,25.201-2.459
		c9.195,3.998,11.142,7.62,11.889,8.741c0.186,0.279,0.303,0.455,0.479,0.56c0.292,0.175,0.756,0.302,1.324,0.221
		c0.267,0.441,0.56,0.88,0.837,1.27c-0.308,0.416-0.671,0.995-0.628,1.377c0.073,0.652,0.073,0.676,0.314,0.411
		c0.193-0.212-0.014-0.653,0.481-1.557c0.346,0.472,0.653,0.847,0.831,1.026c0.311,0.311,0.497,0.399,0.61,0.452
		c-0.661,0.377-1.639,0.928-2.066,1.142c-0.677,0.338-0.556,0.411-0.338,0.531c0.167,0.093,0.376,1.222,0.475,1.885
		c-0.553,0.501-0.994,0.882-1.2,1.013c-0.797,0.507-0.797,0.628-0.845,0.966c-0.048,0.338,0.241,0.362,0.241,0.362l-2.512,1.981
		c0,0-0.338,0.048-0.773,0.121c-0.435,0.072-0.894,0.29-0.894,0.29s-0.241-0.024-0.604-0.072c-0.362-0.048-0.556,0.411-0.556,0.411
		s-0.048,0-0.507-0.097c-0.459-0.097-0.386,0.169-0.386,0.169s-1.377-0.024-2.319-0.024c-0.942,0-1.184-0.024-1.377,0.411
		c-0.193,0.435,0,0.459,0,0.459s0.169-0.338,0.145-0.217c-0.024,0.121,0.362,1.063,0.362,1.063s-0.048-0.169-0.096-0.531
		c-0.048-0.362,0.048-0.266,0.556-0.531c0.507-0.266,2.56-0.048,2.56-0.048l-0.121,0.314c0,0,0.459-0.024,0.99-0.193
		c0.531-0.169,0.797-0.411,0.797-0.411l0.048,0.387c0,0,0.338-0.097,0.773-0.338c0.435-0.242,0.7-0.483,0.7-0.483l0.362,0.435
		c0,0,1.526-0.839,2.687-1.613c1.16-0.774,1.595-1.354,1.595-1.354v0.967c0,0,0.629-1.837,1.499-2.514
		c0.563-0.438,1.956-2.009,2.869-3.064c0.623,0.13,0.878,0.103,0.805-0.224c-0.036-0.163-0.086-0.346-0.137-0.555
		c0.117-0.138,0.185-0.218,0.185-0.218s2.998,2.514,5.27,3.481c2.272,0.967,2.321,0.967,2.321,0.967s1.112,0.097,1.354-0.338
		c0.041-0.074,0.093-0.127,0.151-0.174c0.001,0.357,0.009,0.694,0.026,0.991c0.097,1.691,0.169,7.802,0.169,7.802l-2.077,5
		c0,0-1.208,1.256-1.908,1.884c-0.7,0.628-1.425,1.159-1.763,1.232c-0.338,0.072-0.411,0.217-0.652,0.531
		c-0.241,0.314-1.232,0.845-1.232,0.845s0.29,0.024,0.773-0.169c0.483-0.193,0.773-0.217,0.773-0.217l0.362,0.797
		c0,0,0.073-0.652,0.217-0.99c0.145-0.338,0.845-0.411,1.377-0.87c0.531-0.459,2.464-2.536,2.464-2.536l0.242,0.725
		c0,0,0.507-1.908,1.208-2.778c0.7-0.87,1.401-3.696,1.449-3.889c0.048-0.193,0.869,1.111,0.869,1.111s-0.483-1.232-0.845-1.763
		c-0.362-0.531-0.2-3.278-0.006-4.68c0.194-1.402-0.018-5.634-0.018-5.634s5.194,2.464,6.474,2.706
		c1.28,0.242,3.744,0.604,3.744,0.604s0.7,0.024,1.135-0.58c0.435-0.604,0.073-1.063,0.073-1.063s0.241-0.459,0.048-1.087
		c-0.193-0.628-1.353-2.222-1.353-2.222s0.459,0.193,1.498,0.193c1.039,0,1.981-0.024,1.981-0.024s2.174,2.053,4.421,2.416
		c2.247,0.362,3.14,0.87,3.14,0.87s2.126,0.942,2.585,1.039c0.459,0.097,0.193-0.362,0.121-0.604
		c-0.073-0.242,15.146,3.454,17.368,3.962c2.222,0.507,7.174,1.957,7.319,2.029c0.145,0.072,0.942,1.304,0.942,1.304l-0.435-1.111
		l0.121-0.459c0,0,2.102,0.531,3.31,0.87s7.778,2.077,7.778,2.077l-0.169-0.435c0,0,0.99,0.266,1.884,0.362s3.358,0.435,3.358,0.435
		s-0.145-0.362-0.169-0.531c-0.024-0.169,2.561-0.386,3.068-0.362s0.628,1.425,0.652,1.594
		C2162.417,120.345,2162.779,119.403,2162.682,118.509L2162.682,118.509z M2078.765,109.423c-0.284-0.466-0.767-1.134-0.799-1.277
		c-0.048-0.217,0.048,0,0.483-0.072c0.351-0.058,0.812-0.667,1.8-1.268c0.038,0.202,0.138,0.469,0.578,0.687
		C2080.163,108.116,2079.426,108.812,2078.765,109.423L2078.765,109.423z M2113.772,93.766c-0.052-0.376-0.094-0.725-0.094-0.872
		c0-0.387-0.435-0.967,0.387-0.532c0.822,0.435,4.061,1.064,5.705,1.886c0.17,0.085,0.354,0.172,0.549,0.259
		c-0.718-0.132-1.307-0.238-1.709-0.308C2117.803,94.06,2115.976,93.905,2113.772,93.766L2113.772,93.766z M2092.408,106.383
		c-0.204-1.191-0.438-2.127-0.438-2.127s3.223,1.447,4.217,0.625c0.245,0.254,0.485,0.483,0.646,0.585
		c0.459,0.29,3.479,2.633,3.479,2.633s-3.044-1.329-4.662-1.618c-1.619-0.29-2.585-0.797-2.923-0.797
		C2092.401,105.682,2092.567,105.794,2092.408,106.383L2092.408,106.383z M2086.606,103.621c0.157,0.211,0.341,0.344,0.419,0.37
		c0.145,0.048-0.121,0.266,0.217,1.039c0.338,0.773,1.063,2.126,1.063,2.126s-3.744-1.522-4.469-1.788
		c-0.725-0.266-0.386-0.121-1.087,0.386c-0.04,0.029-0.092,0.07-0.155,0.122c-0.002-0.025-0.003-0.049-0.005-0.074
		c-0.048-0.822-0.049-1.982-0.048-2.369c0-0.387-0.097-1.112-0.097-1.112s1.837,0.532,3.288,1.16
		C2085.97,103.585,2086.27,103.625,2086.606,103.621L2086.606,103.621z"/>
	<g>
		<g>
			<path style="fill:#7F8C8D;" d="M1947.091,95.161c-0.609-0.53-1.962-0.424-3.288-0.371c-1.326,0.053-2.333-0.212-3.235-0.239
				c-0.902-0.026-1.511-0.185-1.75-0.398c-0.239-0.212-0.716-0.61-1.193-1.485c-0.477-0.875-2.015-2.44-2.837-3.474
				c-0.823-1.034-3.262-3.155-3.262-3.155s0.451-0.451,0.213-1.008c-0.239-0.557-5.886-4.216-8.035-5.595
				c-2.147-1.379-3.845-2.068-4.349-2.148c-0.504-0.08-0.849,0-0.849,0s-0.053-0.318-0.664-0.159
				c-0.61,0.159-2.121,1.644-3.261,2.943c-1.139,1.299-2.254,2.439-2.254,2.439l-0.609,0.292c0,0-1.219-1.697-1.935-2.599
				c-0.716-0.902-2.254-2.095-3.049-2.652c-0.796-0.557-1.326-0.743-1.724-0.61c-0.397,0.133-0.795,0.451-0.795,0.451
				s-0.319-0.451-0.636,0.398c-0.319,0.849-1.432,4.747-1.83,6.974c-0.398,2.227-0.452,5.198-0.452,5.198s0.027-0.133-1.061-0.371
				c-1.086-0.239-3.182-0.424-3.182-0.424s-0.133-0.663-0.292-0.663c-0.159,0-0.451,0-0.451,0l-0.849-1.113
				c0,0-0.796-3.421-1.352-4.269c-0.557-0.849-0.743-1.087-0.743-1.087s-1.538-3.076-1.909-3.262c-0.372-0.186-0.928,0-1.326,0.239
				c-0.398,0.239-0.477,0.292-0.663,1.008c-0.185,0.716-0.69,1.803-0.769,2.572c-0.08,0.769-0.185,1.167-0.185,1.167
				s-1.008-0.159-2.281,0.663c-1.273,0.822-2.095,1.618-2.281,1.777c-0.185,0.159-0.69,0.345-0.69,0.345s0.876-1.909,0.876-2.837
				c0-0.928-0.743-1.962-2.175-2.625c-1.431-0.663-1.644-0.901-2.546-0.849c-0.901,0.053-1.67,0.106-2.943,0.345
				c-1.273,0.239-2.652,0.398-2.652,0.398s1.166-1.75,2.758-2.572c1.591-0.822,3.314-1.299,4.879-2.175
				c1.564-0.875,2.095-1.989,1.219-2.333c-0.875-0.345-6.019-2.201-7.133-2.678c-1.113-0.477-4.773-1.538-5.966-1.697
				c-1.193-0.159-1.617,0.716-1.697,0.902c-0.079,0.185,0,0.345,1.167,0.185c1.167-0.159,2.307,0.345,3.474,0.69
				c1.167,0.345,1.326,0.636,2.069,0.848s0.875,0.265,1.326,0.477c0.451,0.212,0.849,0.398,1.485,0.504
				c0.636,0.106,0.928,0.371,1.564,0.637c0.636,0.265,1.618,0.451,1.75,0.477c0.132,0.026,0.477,0.053,0.477,0.053
				s-3.366,1.697-5.276,3.182c-1.91,1.485-2.97,2.89-3.235,3.367c-0.265,0.478-0.371,0.769-0.45,0.769
				c-0.08,0-0.557,0.477-0.664,0.663c-0.106,0.186-0.186,0.583-0.186,0.583s-2.014,0.955-2.704,1.83s-1.3,1.273-1.671,1.723
				c-0.371,0.451-0.609,0.822-0.769,1.166c-0.159,0.345-0.345,0.637-0.451,1.088c-0.105,0.451,0.027,1.246,0.027,1.246
				s-0.186,0.133,0.715,0.477c0.902,0.345,2.121,0.769,2.121,0.769l-0.185,0.875c0,0-0.451-0.239-1.061-0.371
				c-0.611-0.133-0.53-0.292-1.273-0.477c-0.742-0.185-0.609-0.636-1.458-0.636c-0.849,0-0.53-0.186-1.379-0.318
				c-0.849-0.132-1.061-0.344-1.617-0.344c-0.557,0-0.293-0.159-1.14-0.159c-0.849,0-0.372-0.185-1.193-0.185
				c-0.822,0-0.478-0.186-1.326-0.053c-0.848,0.132-0.848,0.132-1.723,0.318c-0.876,0.186-1.327,0.292-2.095,1.352
				c-0.769,1.061-0.742,1.962-0.212,1.538c0.53-0.424,1.167-0.663,1.564-0.981c0.399-0.318,0.849-0.504,1.114-0.583
				c0.265-0.08,0.424-0.265,1.008-0.265c0.583,0,0.848-0.08,1.193-0.027c0.345,0.053,0.531-0.133,1.088-0.053
				c0.556,0.08,0.875,0.185,1.458,0.292c0.583,0.106,1.034-0.027,1.565,0.08c0.531,0.106,0.822,0.212,1.405,0.371
				c0.584,0.159,0.664,0.106,1.247,0.292c0.583,0.185,1.034,0.636,1.83,0.742c0.795,0.106,1.564,0.504,1.962,0.531
				c0.397,0.026,1.061-1.193,1.061-1.193s1.405,0.981,4.693,0.849c3.288-0.133,5.303-0.53,6.046-1.167
				c0.742-0.636,1.352-1.644,1.352-1.644s0.611,0.822,1.353,1.671c0.743,0.848,1.538,1.777,2.069,2.148
				c0.53,0.371,1.326,0.716,1.326,0.716s-0.239,0.212-0.186,0.451c0.053,0.238,0.186,0.504,0.186,0.504s-2.227-0.743-3.713-0.849
				c-1.484-0.106-2.2,1.087-2.28,1.167c-0.08,0.08-2.041,2.864-3.155,5.329c-1.114,2.466-1.83,5.012-1.83,5.012
				s-0.982,0.583-1.618,1.909c-0.637,1.326-0.929,2.652-1.22,3.182c-0.292,0.53-0.504,1.167-0.504,1.167s-0.874,0.769-1.166,1.061
				c-0.292,0.291-0.531,0.318-1.141,0.557c-0.61,0.239-0.503,0.345-1.272,0.477c-0.769,0.133-0.876,0.159-1.273,0.106
				c-0.398-0.053-0.875-0.318-0.875-0.318l0.159,0.345l-0.504,1.087l0.504-0.212l0.769,0.981c0,0-0.504-0.769-0.159-1.008
				c0.344-0.238,1.405-0.265,1.405-0.265l-0.238,0.61l1.326-0.928l-0.132,0.557c0,0,0.901-0.583,1.087-0.875
				c0.186-0.292,0.557-0.451,0.557-0.451l0.106,0.584c0,0,0.16-0.318,0.557-0.955c0.397-0.636,0.849-0.795,0.849-0.795l0.397,0.557
				c0,0,0.159-0.371,0.265-0.769c0.106-0.398,0.451-0.928,0.636-1.538c0.185-0.61,0.398-0.849,0.584-1.458
				c0.186-0.61,0.239-0.823,0.45-1.326c0.212-0.504,0.557-0.637,0.849-0.928c0.292-0.292,0.637-0.875,0.637-0.875l0.955-0.637
				l-0.053,1.299c0,0,0.583-0.716,0.583-1.14c0-0.424-0.133-1.22-0.133-1.22s1.538-1.909,2.148-4.084
				c0.609-2.174,0.769-3.421,0.875-3.686c0.106-0.265,0.53-0.504,0.53-0.504l-0.027,0.398c0,0,1.565,0.159,3.023,1.14
				c1.459,0.981,1.643,1.459,2.996,1.962c1.352,0.504,2.705,0.425,2.705,0.425s-1.246,3.527-1.83,6.629
				c-0.584,3.102-0.849,6.125-0.928,6.152c-0.079,0.026-0.583,0.848-0.583,0.848l0.637-0.372l0.106,0.292
				c0,0-0.663,5.33-1.087,6.709c-0.425,1.378-0.478,2.068-0.478,2.068l0.239-0.133c0,0-0.664,1.379-1.061,2.174
				c-0.397,0.795-1.061,1.724-1.432,2.121c-0.371,0.398-0.583,0.849-1.194,1.14c-0.609,0.292-1.007,0.292-1.007,0.292l0.769,0.292
				v0.689l0.424-0.61l0.955,0.689l-0.291-0.689c0,0,0.213-0.583,0.372-0.636c0.159-0.053,0.53,0.212,0.53,0.212
				s0.344-0.557,0.45-0.928c0.106-0.371,0.292,0,0.292,0s0.16-0.159,0.265-0.716c0.106-0.557,0.557-1.167,0.557-1.167l0.159,0.185
				c0,0,0.212-0.212,0.318-1.14c0.106-0.928,0.557-1.75,0.557-1.75l0.212,0.636c0,0,0.319-1.034,0.372-1.67
				c0.053-0.636,0.213-2.97,0.477-4.72c0.266-1.75,0.637-3.156,0.637-3.156l0.477-0.291l1.141,1.034l-1.194-1.883
				c0,0,0.636-3.659,1.379-6.364c0.742-2.705,1.007-5.303,1.007-5.303s1.565,2.121,2.705,2.281c1.14,0.159,1.617-0.239,1.617-0.239
				s0.557-0.053,0.743-0.319c0.186-0.265,0.398-0.954,0.398-0.954s0.796-0.265,1.697-1.22c0.902-0.955,1.326-2.652,1.326-2.652
				s0.424,1.273,1.618,1.909c1.194,0.636,1.538,0.716,2.439,0.981c0.902,0.265,1.829-0.079,1.829-0.079s0.425,0.689,1.194,0.875
				c0.769,0.186,1.273,0.716,2.228,0.583c0.954-0.132,1.989-0.292,1.989-0.292s0.344,1.193,2.784,2.44
				c2.439,1.246,3.527,2.28,5.727,2.731c2.201,0.451,3.049,0.477,3.978,0.477c0.928,0,1.962-0.185,1.962-0.185
				s0.928,1.007,1.22,1.22c0.292,0.212,0.451,1.034,0.451,1.034l0.08-0.69h0.902c0,0,2.997,0.663,4.189,1.087
				c1.193,0.424,1.723,0.053,1.723,0.053s0.981,0.026,1.538-0.053c0.557-0.079,1.008-0.026,1.008-0.026l0.026-0.265
				c0,0,1.22-0.345,1.591-0.371c0.371-0.027,0.186,0,0.795-0.186c0.611-0.186,1.088-0.186,1.326-0.344
				c0.239-0.159,0.849-0.398,1.114-0.53c0.265-0.133,0.955,0.875,0.955,0.875s-0.027-1.034-0.239-1.326
				c-0.212-0.292-0.902-0.424-1.909-0.08c-1.008,0.344-2.254,0.822-2.864,1.008c-0.61,0.185-0.292-0.239-0.822-0.08
				c-0.531,0.159-2.599,0.61-2.599,0.61s0.69-0.477,0.026-0.477c-0.662,0-1.379,0.106-2.281,0c-0.901-0.106-1.643-0.053-2.254-0.477
				c-0.61-0.424-0.742-0.61-1.141-1.061c-0.397-0.451-0.848-0.981-0.848-0.981s1.538-1.246,2.148-3.633
				c0.61-2.386,0.637-5.303-0.715-7.929c-1.353-2.625-2.254-4.057-4.375-5.993c-2.122-1.935-3.155-2.201-5.144-2.811
				c-1.99-0.61-2.6-0.212-2.6-0.212s-0.662-0.292-1.908-0.398c-1.247-0.106-2.44,0.159-2.44,0.159l0.769-0.822
				c0,0,0.344,0.186,2.015-0.53c1.67-0.716,1.697-1.061,2.334-1.591c0.636-0.53,1.273-0.53,1.273-0.53s-0.69-0.345-1.406,0.053
				c-0.716,0.398-0.981,0.424-1.617,0.69c-0.637,0.265-1.512,0.902-1.512,0.902s1.008-2.281,2.016-3.102
				c1.007-0.823,1.988-1.432,2.015-1.671c0.026-0.239,0.131-0.875,0.131-0.875s0.876,0.981,2.838,2.625
				c1.962,1.644,3.766,2.731,5.224,3.819c1.458,1.087,2.121,1.723,2.121,1.723l0.424,3.394l0.106-3.182l0.981,0.212
				c0,0,3.712,4.508,4.614,5.622c0.901,1.114,1.485,1.962,1.538,2.068c0.053,0.106-0.345,0.318,0.504,0.53
				c0.848,0.212,2.625,1.14,4.402,1.087c1.777-0.053,2.148-0.265,3.023-0.371c0.875-0.106,1.511-0.133,1.511-0.133l0.477,1.034
				C1947.197,96.566,1947.701,95.692,1947.091,95.161z M1868.257,88.77c0,0,0-0.477,0.079-0.477c0.08,0,0.292,0.186,0.292,0.186
				L1868.257,88.77z M1891.247,84.634c-0.291-0.159-0.716-0.345-0.716-0.345l0.319-2.042c0,0,0.371,0.955,0.663,1.591
				c0.292,0.636,0.424,1.246,0.424,1.246S1891.539,84.793,1891.247,84.634z M1896.312,100.729c0,0-0.239,0.053-0.557-0.292
				c-0.318-0.345-1.326-1.273-1.326-1.273s0.504-0.875,0.239-1.538c-0.265-0.663-0.503-1.352-0.503-1.352l1.033,0.053l1.246,0.981
				c0,0-0.185,0.159-0.212,1.246C1896.205,99.642,1896.312,100.729,1896.312,100.729z M1908.324,99.51
				c-0.637-0.026-1.247,0.027-1.247,0.027s0.053-0.106-0.556-0.769c-0.61-0.663-1.697-1.352-1.777-1.458
				c-0.079-0.106-0.186-0.61-0.186-0.61s0.372-0.159,0.61-0.159c0.239,0,0.981,0.08,1.272,0.371c0.292,0.292,0.61,0.663,0.955,0.663
				c0.345,0,1.008-0.186,1.008-0.186s0.159,1.008,0.372,1.352c0.212,0.345,0.556,0.743,0.556,0.743S1908.961,99.536,1908.324,99.51z
				 M1909.755,86.198c-1.007,1.697-1.166,2.068-1.378,2.757c-0.213,0.69-0.451,1.592-0.584,1.963
				c-0.132,0.371-0.795,2.307-0.795,2.307s-0.875-3.421-1.379-3.739c-0.504-0.318-1.008-0.424-1.167,0.106
				c-0.159,0.53-0.663,3.553-0.663,3.553l-0.981-1.512c0,0,0.981-3.951,1.352-5.887c0.371-1.936,0.901-4.985,0.955-5.595
				c0.053-0.61,0.451-1.776,0.451-1.776s1.219,1.193,2.095,2.095c0.875,0.901,1.3,1.856,1.564,1.909
				c0.266,0.053,0.557,1.034,0.557,1.034l0.026-1.22c0,0,0.451,0.133,0.849,0.583c0.398,0.451,0.822,0.796,0.822,0.796
				S1910.763,84.501,1909.755,86.198z"/>
		</g>
	</g>
	<path style="fill:#7F8C8D;" d="M1729.547,98.867c-0.179-0.149-0.479-0.235-0.64-0.233c-0.383,0.004-0.766,0.133-1.124,0.259
		c-0.522,0.184-0.807,0.403-1.092,0.724c-0.444,0.032-1.031,0.249-1.584,0.506c-0.785,0.365-1.503,0.809-1.659,0.917
		c-0.102,0.07-0.222,0.166-0.342,0.28c-0.766-0.301-2.317,0.51-3.362,0.844c-0.244-0.727-1.132-0.768-1.94-1.08
		c-1.031-0.398-2.035-1.015-3.115-1.232c0,0-0.001-0.005-0.001-0.007c0.004,0,0.007,0,0.01,0l-0.01-0.002
		c-0.01-0.051-0.023-0.096-0.04-0.131c-0.514-1.078-2.535-1.085-3.35-1.639c-0.629-0.427-0.787-0.889-1.645-1.058
		c-0.068-0.013-0.143-0.029-0.222-0.045c-0.197-0.531-0.404-1.05-0.622-1.555c0.535-0.038,1.07-0.105,1.554-0.066
		c0.8,0.065,4.034,0.814,4.244-0.28c0.01-0.053,0.009-0.126,0-0.213c0.946,0.135,4.625,1.136,5.145,0.058
		c0.46-0.044,0.91-0.078,1.378-0.12c0.61-0.055,2.588-0.09,2.663-0.936c0.004-0.05-0.003-0.1-0.018-0.151
		c0.546-0.294,1.439-0.915,1.798-1.287c0.307-0.319,0.37-0.559,0.292-0.723c0.199-0.167,0.379-0.332,0.399-0.34
		c0.379-0.149,1.638,0.367,1.313-0.425c-0.189-0.461-1.174-0.48-1.552-0.306l0.042-0.045c-0.038,0.02-0.075,0.041-0.107,0.065
		c-0.018,0.014-0.034,0.029-0.05,0.044c-0.218,0.135-0.386,0.321-0.492,0.536c-0.015,0.03-0.028,0.06-0.041,0.092l-0.109,0.117
		c-0.283-0.004-0.607,0.08-0.847,0.249c-0.491,0.347-1.141,0.788-1.61,1.249c-0.009-0.002-0.018-0.004-0.026-0.005
		c-0.548-0.098-1.105,0.225-1.573,0.433c-0.551,0.244-1.42,0.275-2.034,0.496c-0.945-0.409-2.682-0.339-3.328-0.472
		c-0.346-0.071-0.595-0.22-0.963-0.223c-0.354-0.002-0.692,0.24-0.939,0.049c-1.101-0.849-2.815,0.296-4.007,0.333
		c-0.533,0.017-1.067-0.113-1.553-0.144c-0.15-0.009-0.35-0.025-0.568-0.032c-0.555-1.031-1.158-1.969-1.802-2.784
		c0.277-0.359,0.536-0.739,0.632-1.186c0.127-0.591,0.023-1.291,0.474-1.79c0.376-0.416,1.156-0.596,1.641-0.787
		c0.705-0.278,1.477-0.641,2.228-0.872c0.561-0.173,1.487-0.075,1.51-0.788c0.004-0.143-0.031-0.308-0.094-0.475
		c0.074-0.036,0.148-0.07,0.223-0.098c0.531-0.198,1.236-0.366,1.75-0.628c0.657-0.335,3.053-1.433,2.936-2.335
		c-0.002-0.013-0.005-0.025-0.007-0.039c0.237-0.341,0.397-0.85,0.438-1.162c0.076-0.581,0.307-2.9-0.07-3.365
		c-0.029-0.036-0.066-0.067-0.109-0.092c-0.059-0.441-0.311-0.96-0.396-1.27c-0.183-0.665-0.41-1.343-0.755-1.95
		c-0.173-0.305-0.577-1.196-0.844-1.351c-0.332-0.192-0.354,0.015-0.412-0.398c-0.034-0.241-0.01-0.496,0.108-0.711
		c0.203-0.368,0.469-0.554,0.761-0.802c0.389-0.33,0.439-1.34-0.235-0.856c-0.485,0.349-1.23,0.782-1.572,1.267
		c-0.309,0.438-0.281,1.151-0.013,1.661c-0.122,0.072-0.216,0.158-0.26,0.254c-0.261,0.564,0.552,1.38,0.838,1.791
		c0.388,0.56,1.274,1.604,1.491,2.465c-0.478,0.257-0.348,0.415-0.401,0.984c-0.069,0.741,0.052,1.943-0.076,2.818
		c-0.614,0.157-1.253,0.506-1.582,0.722c-0.36,0.236-2.034,1.319-2.765,1.99c-0.036-0.009-0.071-0.015-0.105-0.015
		c-0.755-0.001-1.685,0.593-2.352,0.915c-1.569,0.756-3.182,1.169-3.831,2.928c-0.205,0.555-0.365,1.133-0.482,1.724
		c-0.33-0.304-0.668-0.577-1.013-0.813c0.7-0.566,1.007-2.135,0.85-3.624c-0.135-1.283-0.709-2.336-1.761-2.336
		c-0.379,0-0.731,0.249-1.028,0.615c-0.31-0.629-0.749-1.022-1.236-1.022c-0.487,0-0.926,0.393-1.236,1.022
		c-0.297-0.365-0.649-0.615-1.028-0.615c-1.052,0-1.626,1.053-1.761,2.336c-0.157,1.49,0.151,3.058,0.851,3.624
		c-0.346,0.236-0.683,0.508-1.013,0.813c-0.117-0.591-0.277-1.169-0.482-1.724c-0.65-1.76-2.262-2.172-3.832-2.928
		c-0.667-0.322-1.597-0.916-2.352-0.915c-0.034,0-0.069,0.005-0.105,0.015c-0.73-0.672-2.405-1.754-2.765-1.99
		c-0.329-0.216-0.968-0.564-1.582-0.722c-0.128-0.875-0.007-2.077-0.076-2.818c-0.053-0.569,0.078-0.727-0.401-0.984
		c0.217-0.86,1.102-1.904,1.491-2.465c0.286-0.411,1.098-1.227,0.838-1.791c-0.045-0.096-0.138-0.182-0.26-0.254
		c0.269-0.51,0.296-1.223-0.013-1.661c-0.343-0.485-1.087-0.919-1.572-1.267c-0.673-0.484-0.623,0.526-0.235,0.856
		c0.293,0.249,0.559,0.434,0.762,0.802c0.118,0.215,0.141,0.47,0.108,0.711c-0.058,0.413-0.079,0.206-0.412,0.398
		c-0.267,0.155-0.671,1.046-0.844,1.351c-0.345,0.606-0.572,1.285-0.755,1.95c-0.085,0.309-0.336,0.829-0.396,1.27
		c-0.042,0.025-0.08,0.056-0.109,0.092c-0.378,0.465-0.146,2.783-0.07,3.365c0.041,0.312,0.2,0.821,0.438,1.162
		c-0.002,0.013-0.005,0.025-0.006,0.039c-0.117,0.902,2.279,2,2.936,2.335c0.514,0.262,1.219,0.43,1.75,0.628
		c0.075,0.028,0.149,0.062,0.223,0.098c-0.063,0.168-0.098,0.333-0.094,0.475c0.023,0.713,0.949,0.615,1.509,0.788
		c0.751,0.231,1.523,0.595,2.228,0.872c0.485,0.191,1.264,0.371,1.641,0.787c0.451,0.499,0.347,1.199,0.474,1.79
		c0.096,0.447,0.355,0.827,0.632,1.186c-0.643,0.815-1.247,1.753-1.802,2.784c-0.218,0.007-0.418,0.023-0.569,0.032
		c-0.486,0.031-1.02,0.16-1.552,0.144c-1.192-0.037-2.906-1.183-4.006-0.333c-0.247,0.191-0.585-0.052-0.939-0.049
		c-0.367,0.003-0.616,0.152-0.963,0.223c-0.647,0.132-2.383,0.063-3.329,0.472c-0.614-0.221-1.484-0.253-2.034-0.496
		c-0.468-0.208-1.025-0.531-1.573-0.433c-0.008,0.001-0.017,0.003-0.026,0.005c-0.469-0.461-1.119-0.902-1.61-1.249
		c-0.239-0.169-0.564-0.252-0.847-0.249l-0.109-0.117c-0.012-0.031-0.026-0.062-0.041-0.092c-0.106-0.215-0.274-0.4-0.492-0.536
		c-0.016-0.015-0.032-0.031-0.05-0.044c-0.032-0.024-0.069-0.045-0.107-0.065l0.042,0.045c-0.378-0.174-1.363-0.154-1.552,0.306
		c-0.325,0.792,0.934,0.276,1.313,0.425c0.019,0.008,0.2,0.173,0.398,0.34c-0.078,0.164-0.015,0.404,0.292,0.723
		c0.358,0.372,1.252,0.994,1.798,1.287c-0.016,0.05-0.023,0.101-0.019,0.151c0.074,0.847,2.052,0.882,2.663,0.936
		c0.468,0.042,0.918,0.076,1.378,0.12c0.519,1.078,4.198,0.078,5.145-0.058c-0.01,0.087-0.01,0.16,0,0.213
		c0.21,1.094,3.443,0.346,4.244,0.28c0.485-0.039,1.02,0.027,1.554,0.066c-0.218,0.504-0.426,1.024-0.622,1.555
		c-0.079,0.017-0.154,0.032-0.222,0.045c-0.858,0.169-1.016,0.631-1.645,1.058c-0.815,0.553-2.836,0.561-3.35,1.639
		c-0.017,0.035-0.03,0.08-0.04,0.131l-0.01,0.002c0.004,0,0.007,0,0.01,0c0,0.002-0.001,0.005-0.001,0.005
		c-1.08,0.219-2.084,0.836-3.115,1.234c-0.808,0.312-1.696,0.353-1.94,1.08c-1.045-0.334-2.595-1.145-3.362-0.844
		c-0.12-0.113-0.24-0.209-0.342-0.28c-0.155-0.108-0.874-0.552-1.659-0.917c-0.554-0.257-1.14-0.475-1.584-0.506
		c-0.285-0.321-0.569-0.541-1.092-0.724c-0.358-0.126-0.741-0.254-1.124-0.259c-0.162-0.002-0.461,0.084-0.64,0.233
		c-0.134,0.112-0.201,0.258-0.092,0.43c0.134,0.212,0.435,0.145,0.675,0.145c0.285,0,0.545-0.038,0.793,0.103
		c0.142,0.081,0.281,0.187,0.399,0.3c0.047,0.045,0.048,0.118,0.098,0.155c0.064,0.048,0.157,0.035,0.215,0.093
		c0.116,0.117,0.049,0.265,0.097,0.401c0.038,0.108,0.139,0.213,0.212,0.299c0.205,0.239,0.455,0.442,0.702,0.636
		c0.441,0.344,0.909,0.662,1.394,0.941c0.34,0.196,1.043,0.521,1.619,0.542c0.42,0.821,1.789,0.633,2.641,0.668
		c0.353,0.014,0.867,0.077,1.278-0.004c0.879,0.936,3.521-1.035,5.029-2.097c0.031,0.081,0.064,0.147,0.097,0.19
		c0.584,0.752,1.307-0.093,1.863-0.479c0.581-0.403,1.314-0.563,1.92-0.991c0.079-0.056,0.144-0.112,0.204-0.166
		c-0.494,1.834-0.856,3.744-1.065,5.643c-0.92,0.958-1.955,3.358-2.357,3.932c-0.647,0.923-2.85,2.524-2.723,3.763
		c0.016,0.149,0.085,0.285,0.188,0.405c-0.364,1.456-1.169,2.786-1.629,4.212c-0.219,0.68-0.5,1.295,0.104,1.823
		c0.014,0.012,0.03,0.024,0.048,0.037c-0.147,1.386-0.193,2.632,0.694,3.83c0.61,0.825,1.102,1.749,1.799,2.508
		c0.339,0.368,0.786,0.688,1.255,0.864c0.19,0.072,0.434,0.151,0.641,0.1c0.222-0.055,0.293-0.243,0.518-0.062
		c0.161,0.129,0.24,0.3,0.305,0.481c0.1,0.282,0.121,0.597,0.121,0.909c0,0.304-0.063,0.698,0.193,0.905
		c0.459,0.373,0.856-0.249,0.939-0.641c0.084-0.394,0.079-0.811,0-1.205c-0.166-0.827-0.724-1.569-1.632-1.57
		c-0.002-0.014-0.004-0.027-0.006-0.041c0-0.003-0.001-0.006-0.001-0.006l0.011-0.006c-0.004-0.001-0.008-0.001-0.013-0.002
		c-0.127-0.702-1.061-1.077-1.505-1.555c-0.623-0.67-0.807-1.273-0.959-2.136c-0.062-0.349-0.142-0.911-0.286-1.477
		c-0.069-0.274-0.154-0.549-0.258-0.802c0.621-0.845,0.744-3.322,0.875-4.168c0.054-0.35,0.208-0.935,0.278-1.497
		c0.634-0.175,0.854-1.311,1.215-1.888c0.654-1.046,1.331-2.101,1.979-3.158c0,0.027,0,0.054,0,0.08
		c0,10.043,5.002,14.303,11.174,14.303c6.171,0,11.174-4.26,11.174-14.303c0-0.027,0-0.053-0.001-0.08
		c0.649,1.057,1.325,2.113,1.979,3.158c0.361,0.577,0.581,1.713,1.215,1.888c0.07,0.562,0.224,1.148,0.278,1.497
		c0.131,0.845,0.254,3.322,0.875,4.168c-0.104,0.253-0.189,0.528-0.258,0.802c-0.144,0.567-0.225,1.128-0.286,1.477
		c-0.152,0.863-0.337,1.465-0.959,2.136c-0.443,0.477-1.377,0.853-1.504,1.555c-0.005,0.001-0.009,0.001-0.013,0.002l0.012,0.003
		c0,0-0.001,0.006-0.002,0.009c-0.002,0.014-0.004,0.027-0.006,0.041c-0.908,0.002-1.466,0.743-1.632,1.57
		c-0.079,0.394-0.085,0.811,0,1.205c0.084,0.392,0.48,1.014,0.94,0.641c0.256-0.207,0.193-0.601,0.193-0.905
		c0-0.313,0.021-0.627,0.121-0.909c0.064-0.181,0.144-0.352,0.305-0.481c0.225-0.181,0.296,0.006,0.518,0.062
		c0.206,0.051,0.45-0.028,0.64-0.1c0.469-0.177,0.917-0.496,1.255-0.864c0.697-0.759,1.189-1.683,1.799-2.508
		c0.887-1.198,0.841-2.444,0.694-3.83c0.018-0.012,0.034-0.025,0.048-0.037c0.605-0.529,0.323-1.143,0.104-1.823
		c-0.459-1.426-1.265-2.756-1.629-4.212c0.104-0.12,0.173-0.256,0.188-0.405c0.127-1.239-2.076-2.839-2.723-3.763
		c-0.402-0.573-1.437-2.974-2.357-3.932c-0.209-1.899-0.572-3.81-1.065-5.643c0.059,0.055,0.125,0.111,0.204,0.166
		c0.606,0.428,1.339,0.588,1.92,0.991c0.556,0.386,1.279,1.23,1.863,0.479c0.033-0.043,0.066-0.108,0.097-0.19
		c1.507,1.062,4.149,3.032,5.029,2.097c0.411,0.081,0.925,0.018,1.278,0.004c0.852-0.035,2.22,0.153,2.641-0.668
		c0.575-0.021,1.279-0.347,1.619-0.542c0.485-0.279,0.953-0.597,1.394-0.941c0.247-0.193,0.497-0.396,0.702-0.636
		c0.073-0.086,0.174-0.19,0.212-0.299c0.048-0.136-0.019-0.284,0.097-0.401c0.058-0.058,0.151-0.045,0.214-0.093
		c0.05-0.038,0.051-0.111,0.098-0.155c0.118-0.113,0.257-0.22,0.399-0.3c0.248-0.141,0.508-0.103,0.793-0.103
		c0.24,0,0.541,0.067,0.675-0.145C1729.747,99.125,1729.68,98.978,1729.547,98.867z"/>
	<path style="fill:#7F8C8D;" d="M1534.849,88.887c0,0,1.163-0.534,1.111-1.229c-0.047-0.695-0.208-1.457-0.486-2.197
		c-0.274-0.741-0.663-1.458-1.12-2.088c-0.457-0.63-0.979-1.172-1.509-1.588c0.274-0.474,0.82-0.834,0.73-1.451
		c-0.146-1.007-1.642-2.126-2.979-3.07c-0.666-0.473-1.395-0.898-2.141-1.227c-0.744-0.332-1.652-0.692-1.652-0.692
		s1.063-0.292,0.703-1.072c-0.437-0.947-2.934-2.026-4.586-2.407c-0.823-0.192-1.691-0.317-2.537-0.353
		c-0.846-0.036-2.415,0.166-2.415,0.166s0.277-0.803,0.239-1.076c-0.319-2.331-9.404,0.364-9.404,0.364s0.327-1.26-0.694-1.405
		c-3.468-0.49-8.631,2.124-8.631,2.124s-0.378-0.718-1.31-1.002c-1.009-0.308-7.657,2.905-7.657,2.905s-0.426-0.423-1.247-0.452
		c-1.049-0.037-6.065,3.131-6.78,4.272c-0.558-0.278-1.169-0.35-1.693-0.132c-0.582,0.241-1.003,0.834-1.388,1.594
		c-0.038-0.019-0.076-0.039-0.117-0.055c-0.865-0.342-2.084,0.199-2.805,0.601c-0.582,0.324-1.637,0.903-1.971,1.531
		c-0.177,0.332-0.25,0.592-0.26,0.819c-0.286-0.412-0.692-0.674-1.263-0.47c-1.242,0.445-4.378,3.051-5.307,3.869
		c-1.971,1.735-2.708,5.136-2.637,6.563c0.037,0.744,0.38,1.572,0.921,2.221c0.043,0.33,0.17,0.759,0.367,1.188
		c0.223,0.494,0.53,1.002,0.847,1.451c0.631,0.902,1.309,1.563,1.358,1.524c0.051-0.038-0.371-0.872-0.728-1.856
		c-0.157-0.425-0.3-0.874-0.404-1.284c0.108,0.035,0.217,0.063,0.33,0.083c0.163,0.506,0.397,1.055,0.669,1.541
		c0.273,0.492,0.586,0.916,0.849,1.193c0.263,0.279,0.465,0.414,0.486,0.395c0.026-0.023-0.093-0.229-0.237-0.56
		c-0.146-0.331-0.311-0.791-0.438-1.294c-0.112-0.439-0.195-0.906-0.251-1.337c0.17-0.05,0.333-0.114,0.492-0.189
		c0.078,0.283,0.179,0.593,0.3,0.916c0.249,0.669,0.578,1.393,0.921,2.053c0.343,0.66,0.699,1.257,0.992,1.675
		c0.29,0.421,0.528,0.652,0.553,0.631c0.023-0.02-0.118-0.302-0.288-0.77c-0.174-0.466-0.391-1.11-0.596-1.804
		c-0.206-0.693-0.4-1.436-0.54-2.092c-0.101-0.463-0.171-0.879-0.216-1.203c0.146-0.07,0.294-0.134,0.448-0.185
		c0.036,0.404,0.146,0.984,0.323,1.62c0.185,0.672,0.44,1.408,0.717,2.083c0.276,0.675,0.576,1.29,0.836,1.72
		c0.256,0.434,0.492,0.665,0.517,0.642c0.022-0.019-0.112-0.295-0.244-0.763c-0.137-0.465-0.292-1.11-0.428-1.804
		c-0.137-0.694-0.256-1.436-0.335-2.09c-0.071-0.572-0.108-1.073-0.127-1.418c0.001,0,0.002,0,0.002,0
		c0.608,0.02,0.965-0.103,1.418-0.434c-0.006,0.225-0.001,0.449,0.012,0.664c-0.296,2.821-0.256,7.15,1.48,7.197
		c0.374,0.01,0.756,0.018,1.14,0.02c0.186,0.388,0.483,0.503,0.931,0.562c0.54,0.072,1.099,0.098,1.66,0.094
		c-0.083,0.24-0.165,0.477-0.225,0.706c-0.082,0.314-0.373,1.339-0.282,1.953c-0.247,0.32-0.477,0.794-0.59,1.112
		c-0.143,0.4-0.249,0.81-0.427,1.201c-0.156,0.337-0.35,0.485-0.048,0.804c0.021,0.021,0.047,0.044,0.078,0.068
		c-0.303,0.335-0.395,0.773-0.581,1.205c-0.13,0.303-0.15,0.339,0.075,0.652c-0.102,0.213-0.292,0.335-0.415,0.527
		c-0.127,0.198-0.444,0.606-0.227,0.836c0.036,0.036,0.087,0.078,0.148,0.122c-0.101,0.095-0.187,0.196-0.238,0.27
		c-0.279,0.402-0.407,1.056-0.602,1.539c0.025,0.028,0.056,0.066,0.091,0.109c-0.242,0.156-0.49,0.632-0.623,0.64
		c-0.35,0.024-0.933-0.708-1.194-0.304c0.573,1.113,1.819,1.034,2.134,0.031c0.044,0.041,0.085,0.071,0.12,0.084
		c0.265,0.095,0.4-0.202,0.47-0.464c0.134-0.507,0.162-1.133,0.399-1.583c0.125,0.058,0.237,0.098,0.308,0.104
		c0.077-0.515,0.445-1.007,0.209-1.582c0.377,0.218,0.29-0.462,0.312-0.689c0.035-0.382,0.113-0.786,0.296-1.097
		c0.103,0.045,0.193,0.074,0.253,0.08c0.081-0.537,0.307-1.074,0.423-1.601c0.116-0.486,0.135-1.18,0.342-1.655
		c0.003-0.001,0.006-0.002,0.009-0.003c0.638-0.251,1.15-2.32,1.324-2.978c0.014-0.055,0.028-0.113,0.041-0.173
		c0.448-0.041,0.89-0.092,1.316-0.149c0.081-0.011,0.191-0.021,0.318-0.034c-0.144,0.587-0.427,1.198-0.585,1.766
		c-0.1,0.361-0.456,1.542-0.345,2.249c-0.303,0.368-0.583,0.915-0.722,1.281c-0.174,0.461-0.305,0.933-0.523,1.383
		c-0.19,0.388-0.428,0.558-0.058,0.926c0.025,0.024,0.058,0.051,0.095,0.079c-0.37,0.385-0.483,0.89-0.711,1.388
		c-0.16,0.349-0.184,0.39,0.092,0.751c-0.125,0.245-0.358,0.386-0.508,0.607c-0.155,0.228-0.544,0.698-0.278,0.962
		c0.043,0.042,0.106,0.09,0.181,0.141c-0.124,0.11-0.229,0.226-0.291,0.311c-0.341,0.464-0.498,1.216-0.736,1.772
		c0.031,0.033,0.069,0.077,0.111,0.126c-0.296,0.18-0.599,0.727-0.762,0.738c-0.428,0.027-1.142-0.816-1.461-0.351
		c0.701,1.282,2.226,1.191,2.611,0.036c0.054,0.047,0.104,0.082,0.147,0.097c0.325,0.11,0.49-0.233,0.575-0.534
		c0.164-0.584,0.199-1.305,0.488-1.823c0.153,0.067,0.29,0.113,0.376,0.119c0.095-0.593,0.545-1.16,0.256-1.822
		c0.462,0.25,0.355-0.532,0.381-0.794c0.043-0.44,0.138-0.905,0.362-1.263c0.126,0.051,0.237,0.086,0.31,0.092
		c0.099-0.618,0.376-1.237,0.518-1.844c0.142-0.56,0.165-1.36,0.419-1.906c0.004-0.001,0.007-0.002,0.012-0.004
		c0.78-0.289,1.408-2.672,1.62-3.43c0.125-0.447,0.207-1.046,0.121-1.563c0.111-0.095,0.195-0.21,0.244-0.346
		c0.257,0.206,0.53,0.395,0.827,0.559c0.245,0.136,0.825,0.621,1.116,0.54c0.044-0.012,0.081-0.034,0.115-0.06
		c0.178,0.064,0.387,0.1,0.634,0.125c1.31,0.137,2.704,0.106,4.048,0.011c-0.032,0.241-0.055,0.466-0.066,0.658
		c-0.05,0.853-0.029,1.69-0.15,2.56c-0.108,0.753-0.39,1.204,0.341,1.485c0.054,0.02,0.121,0.037,0.198,0.052
		c-0.132,0.514-0.213,1.074-0.236,1.462c-0.038,0.642-0.022,1.271-0.113,1.927c-0.081,0.567-0.293,0.906,0.256,1.118
		c0.038,0.013,0.084,0.026,0.136,0.036c-0.287,0.67-0.24,1.327-0.326,2.044c-0.06,0.502-0.073,0.564,0.366,0.824
		c-0.057,0.36-0.273,0.663-0.367,1.01c-0.097,0.358-0.376,1.138,0.019,1.29c0.002,0.001,0.005,0.002,0.008,0.002
		c-0.107,0.207-0.189,0.414-0.232,0.554c-0.226,0.744-0.144,1.718-0.221,2.508c0.094,0.04,0.233,0.115,0.381,0.188
		c-0.246,0.407-0.394,1.143-0.565,1.245c-0.479,0.285-1.585-0.279-1.786,0.454c1.252,1.09,2.967,0.066,2.987-1.527
		c0.359-0.099,0.422-0.568,0.414-0.952c-0.017-0.765-0.221-1.611-0.089-2.375c0.302-0.001,0.592-0.03,0.736-0.092
		c-0.099-0.75,0.217-1.679-0.343-2.283c0.613,0.02,0.22-0.832,0.158-1.153c-0.104-0.54-0.158-1.141-0.027-1.692
		c0.161-0.015,0.299-0.039,0.385-0.076c-0.103-0.781-0.003-1.668-0.053-2.462c-0.027-0.59-0.192-1.312-0.209-1.98
		c0.191-0.01,0.367-0.03,0.507-0.059c0.006,0.366,0.112,0.612,0.631,0.727c0.062,0.012,0.137,0.02,0.223,0.024
		c-0.062,0.566-0.06,1.172-0.023,1.587c0.061,0.687,0.178,1.351,0.183,2.06c0.002,0.613-0.174,1.006,0.454,1.145
		c0.043,0.008,0.095,0.014,0.152,0.017c-0.204,0.755-0.049,1.444-0.028,2.217c0.015,0.541,0.01,0.61,0.527,0.817
		c-0.004,0.39-0.19,0.745-0.237,1.128c-0.048,0.395-0.226,1.265,0.225,1.365c0.073,0.014,0.171,0.021,0.284,0.021
		c-0.079,0.229-0.132,0.452-0.156,0.604c-0.127,0.824,0.117,1.843,0.159,2.694c0.054,0.014,0.122,0.035,0.197,0.06
		c-0.235,0.451-0.273,1.345-0.452,1.488c-0.472,0.377-1.757-0.05-1.858,0.758c1.518,0.956,3.2-0.378,2.99-2.058
		c0.088,0.012,0.165,0.014,0.222-0.004c0.431-0.131,0.426-0.67,0.354-1.095c-0.142-0.825-0.508-1.708-0.469-2.555
		c0.212-0.045,0.393-0.1,0.495-0.161c-0.226-0.779-0.032-1.813-0.733-2.367c0.666-0.074,0.105-0.916-0.013-1.247
		c-0.198-0.556-0.352-1.185-0.297-1.789c0.171-0.041,0.317-0.089,0.404-0.141c-0.235-0.812-0.268-1.768-0.447-2.602
		c-0.122-0.621-0.416-1.361-0.539-2.067c0.311-0.062,0.583-0.141,0.73-0.229c-0.313-1.079-0.356-2.35-0.594-3.458
		c-0.022-0.112-0.049-0.227-0.078-0.344c0.256,0.137,0.586,0.197,1.003,0.236c1.521,0.14,3.137,0.115,4.7,0.019
		c0.193,0.931,0.537,1.921,0.831,2.567c0.458,1.003,0.992,1.946,1.372,3.008c0.324,0.92,0.25,1.592,1.325,1.507
		c0.079-0.008,0.173-0.025,0.277-0.051c0.149,0.661,0.39,1.345,0.597,1.801c0.344,0.755,0.747,1.464,1.033,2.264
		c0.244,0.692,0.188,1.198,0.998,1.134c0.054-0.005,0.119-0.018,0.19-0.034c0.051,0.925,0.51,1.649,0.84,2.516
		c0.231,0.606,0.252,0.685,0.956,0.738c0.149,0.442,0.065,0.908,0.16,1.357c0.098,0.463,0.227,1.509,0.809,1.463
		c0.003,0,0.008-0.001,0.011-0.002c-0.007,0.296,0.018,0.578,0.05,0.762c0.172,0.976,0.867,2.042,1.253,2.988
		c0.14-0.007,0.359,0.001,0.587,0.003c-0.058,0.601,0.208,1.525,0.057,1.736c-0.419,0.592-2.133,0.562-1.936,1.511
		c2.214,0.549,3.715-1.573,2.771-3.404c0.384-0.312,0.176-0.883-0.067-1.317c-0.486-0.865-1.254-1.716-1.555-2.663
		c0.374-0.17,0.577-0.368,0.432-0.514c-0.782-0.788-0.901-2.079-1.391-2.417c0.772-0.318-0.234-1.072-0.507-1.405
		c-0.458-0.558-0.891-1.215-1.064-1.917c0.191-0.106,0.347-0.211,0.431-0.301c-0.603-0.835-1.019-1.904-1.564-2.784
		c-0.392-0.658-1.036-1.391-1.464-2.146c0.35-0.179,0.647-0.364,0.788-0.515c-0.801-1.109-1.354-2.53-2.078-3.699
		c-0.439-0.738-1.117-1.546-1.659-2.381c0.292-0.021,0.658-0.048,1.033-0.097c0.234,1.143,0.851,2.554,1.321,3.377
		c0.566,0.989,1.202,1.908,1.696,2.968c0.424,0.918,0.424,1.625,1.484,1.413c0.077-0.017,0.169-0.047,0.27-0.085
		c0.221,0.669,0.536,1.353,0.793,1.802c0.425,0.744,0.904,1.436,1.276,2.233c0.319,0.692,0.319,1.223,1.117,1.064
		c0.054-0.012,0.117-0.032,0.185-0.057c0.153,0.956,0.689,1.654,1.113,2.517c0.296,0.603,0.327,0.683,1.031,0.657
		c0.197,0.442,0.165,0.936,0.309,1.392c0.148,0.47,0.392,1.541,0.965,1.427c0.003-0.001,0.007-0.002,0.011-0.003
		c0.026,0.308,0.081,0.598,0.134,0.786c0.279,0.994,1.087,2.021,1.575,2.96c0.138-0.023,0.357-0.04,0.583-0.065
		c0.008,0.632,0.375,1.561,0.249,1.798c-0.352,0.663-2.058,0.83-1.757,1.793c2.26,0.315,3.518-2.063,2.378-3.857
		c0.347-0.369,0.078-0.938-0.212-1.36c-0.585-0.853-1.456-1.659-1.853-2.623c0.243-0.195,0.413-0.41,0.384-0.598
		c-0.113-0.709-1.201-1.674-1.647-2.302c0.732-0.42-0.351-1.087-0.658-1.401c-0.516-0.528-1.019-1.16-1.27-1.869
		c0.178-0.133,0.322-0.26,0.395-0.363c-0.691-0.797-1.223-1.861-1.861-2.712c-0.462-0.639-1.183-1.327-1.691-2.061
		c0.328-0.226,0.602-0.452,0.726-0.626c-0.918-1.06-1.625-2.473-2.473-3.603c-0.747-1.035-2.009-2.163-2.644-3.385
		c0.084-0.159,0.097-0.347,0.011-0.572c-0.68-1.787-3.352-2.049-4.909-2.049c-0.166,0-0.33,0.002-0.495,0.004
		c-0.921-0.391-1.985-0.575-2.77-0.662c-0.912-0.101-1.809-0.17-2.716-0.241c-0.261-0.877-0.407-1.822-0.42-2.753
		c1.369,0.73,2.797,1.326,3.257,1.212c0.331-0.082,0.561-0.092,0.743-0.11c0.837,0.246,6.116,2.94,7.846,2.867
		c0.666-0.028,0.786-0.421,0.88-0.988c0.591,0.046,3.43,0.692,4.191,0.943c1.433,0.475,2.969,0.525,3.72,0.005
		c0.514-0.356,0.539-0.662,0.518-1.109c0.6-0.054,6.597,1.098,8.049,0.167c0.572-0.367,0.425-0.852,0.269-1.469
		c0.726-0.169,5.939-0.229,7.441-1.378c0.304-0.233,0.46-0.969,0.372-1.486c2.213-1.315,3.4-2.963,3.614-4.948
		C1535.962,88.996,1534.849,88.887,1534.849,88.887z M1485.986,94.925c0.157,0.397,0.332,0.787,0.495,1.179
		c0.255,0.613,0.513,1.232,0.801,1.833c-0.279-0.037-0.587-0.08-0.897-0.105C1486.113,96.909,1485.972,95.903,1485.986,94.925z
		 M1480.644,98.464c-0.484,0-0.959,0.02-1.437,0.042c-0.396-1.144-0.519-2.48-0.289-3.649c0.178-0.904,0.44-2.124-0.311-2.835
		c0.231-0.138,0.459-0.272,0.686-0.381c0.095-0.046,0.191-0.09,0.288-0.133c-0.051,0.668,0,1.359,0.051,1.92
		c0.111,1.211,0.724,2.203,1.249,3.219c0.343,0.664,0.69,1.335,1.077,1.972C1481.488,98.497,1481.018,98.464,1480.644,98.464z"/>
	<g>
		<path style="fill:#7F8C8D;" d="M1279.773,105.48c0,0,0.02-0.008,0.054-0.021C1279.819,105.499,1279.773,105.48,1279.773,105.48z"
			/>
		<path style="fill:#7F8C8D;" d="M1302.545,129.5l0.291-0.434c0,0,0.11,0.002,0.342,0.008c0.232,0.005,0.349-0.286,0.349-0.286
			l-0.538-0.012l-0.107-0.688l0.729,0.212c0,0,0,0,0.056,0.209c0.057,0.209,0.875,0.264,2.786,0.11
			c1.911-0.154,3.716-1.031,3.716-1.031s0.189,0.298,1.143-0.268c0.954-0.566,2.22-1.37,3.43-2.469
			c1.21-1.099,2.021-2.377,2.021-2.377s0.41,0.266,1.094-1.358c0.684-1.624,1.416-2.647,1.952-4.764
			c0.536-2.116,0.23-3.224,0.23-3.224l0.195,0.004c0,0,0.396-2.425-0.05-6.08c-0.446-3.655-1.5-5.781-2.415-7
			c-0.915-1.219-1.584-1.393-2.187-1.234c-0.603,0.158-2.299,0.524-3.414,1.197c-1.115,0.673-3.53,1.451-3.53,1.451
			s-0.676-2.094-0.847-3.199c-0.172-1.105-0.586-2.838-0.694-2.914c-0.108-0.076,0.02-0.354,0.063-0.659
			c0.043-0.305-0.299-0.3-0.299-0.3s0.026-0.061,0.005-0.208c-0.021-0.147-0.14-0.297-0.14-0.297s2.063-2.034,3.036-2.918
			c0.973-0.884,2.223-2.104,3.4-2.763c1.176-0.659,4.458-2.483,6.872-5.488s1.259-3.862,1.259-3.862s1.834-1.097,2.203-1.713
			c0.368-0.616-0.464-0.585-0.464-0.585s2.172-2.007,3.74-3.208c1.568-1.201,3.016-3.676,2.861-3.839
			c-0.155-0.162-0.95,0.921-1.807,1.55c-0.858,0.63-3.339,2.764-3.339,2.764s0.822-1.242,1.033-1.934
			c0.211-0.693-1.074-0.672-2.936,1.158c-1.863,1.831-13.227,10.252-15.114,12.082c-1.887,1.83-6.338,5.682-6.338,5.682
			s-1.169-0.221-2.513-0.288c-1.344-0.066-3.485-0.04-5.669,0.817c-2.184,0.857-2.826,2.8-2.826,2.8s-0.142-0.211-0.417-0.499
			c-0.275-0.287-1.657-0.844-2.95-0.456c-1.293,0.387-2.291,1.846-2.291,1.846s-1.584-0.842-2.061-0.853
			c-0.477-0.01-0.953-0.045-1.441-0.117c-0.488-0.072-1.865-0.286-3.538-0.408c-1.673-0.123-3.316,0.049-4.236,0.213
			c-0.921,0.163-1.742,0.793-1.827,1.318c-0.085,0.524,0.461,0.707,0.686,0.516c0.224-0.191,0.644-0.365,1.481-0.591
			c0.837-0.226,3.21-0.235,3.21-0.235s-0.701,0.18-1.206,0.353c-0.505,0.172-1.396,0.63-1.839,1.317
			c-0.443,0.688-0.433,1.324,0.135,1.654c0.568,0.33,0.459-0.284,0.861-0.801c0.403-0.517,1.021-0.809,1.575-0.981
			c0.554-0.171,1.415-0.397,1.748-0.488c0.332-0.09,0.479-0.075,0.979-0.027c0.5,0.048,0.704-0.29,1.132-0.281
			c0.428,0.01,1.73-0.256,1.73-0.256s0.559,0.171,0.941,0.583c0.383,0.412,0.705,1.312,0.705,1.312s-0.472,1.433-0.775,2.417
			c-0.303,0.984-0.137,1.208-0.038,1.748c0.098,0.54,0.353,1.206,0.405,1.599c0.053,0.393,0.307,0.52,0.307,0.52l-0.097,0.512
			c0,0-0.736,0.106-1.278,0.241c-0.541,0.135-1.106,0.233-1.106,0.233l0.082,0.161c0,0-0.025,0.049-0.356,0.078
			c-0.331,0.03-0.624-0.001-0.624-0.001l-0.266-0.153l0.139,0.358l-0.465,0.014c0,0,0.231,0.066,0.348,0.301
			c0.045,0.09,0.055,0.137,0.05,0.162c0.119-0.046,0.413-0.156,0.624-0.209c0.271-0.067,0.564-0.049,0.564-0.049l0.091,0.308
			c0,0,0.074-0.035,0.198-0.106c0.124-0.071,0.569-0.281,0.569-0.281l0.141,0.297c0,0,0.107-0.426,0.526-0.575
			c0.419-0.15,0.677-0.205,0.677-0.205s-0.066,0.304,0.27,1.045c0.337,0.741,0.228,0.751,0.228,0.751l0.24,0.213l0.205,0.689
			l0.199-0.142c0,0,0.214,0.274,0.383,0.412c0.168,0.138,0.266,0.153,0.266,0.153s0.153-0.278,0.482-0.797
			c0.329-0.519,0.693-1.465,0.693-1.465l0.474-0.381l0.227,0.213c0,0-0.327,0.433-0.544,0.832c-0.217,0.399-0.156,0.412-0.156,0.412
			l-0.63,0.83c0,0-0.053,0.182,0.083,0.112c0.136-0.07,0.656-0.915,0.656-0.915l0.106,0.198c0,0-0.387,0.358-0.513,0.527
			c-0.126,0.169-0.182,0.485-0.182,0.485s0.652-0.744,0.691-0.817c0.038-0.073,0.223-0.093,0.223-0.093s0.598-1.1,0.692-1.489
			c0.094-0.389-0.559-0.746-0.559-0.746s0.54-0.624,0.689-0.719c0.149-0.094,0.366,0.045,0.366,0.045s0.02-0.342,0.056-0.329
			c0.036,0.013,0.243,0.054,0.535,0.134c0.292,0.08,0.201-0.252,0.201-0.252s0.182,0.077,0.4,0.168
			c0.218,0.09,0.233-0.019,0.526,0.011c0.293,0.031,0.324-0.274,0.13-0.376c-0.193-0.102-1.021-0.304-1.021-0.304l0.205-0.411
			c0,0,0.416,0.009,0.95,0.168c0.535,0.159,0.407,0.4,0.407,0.4s-0.105,0.173-0.279,0.437c-0.225,0.342-0.564,0.836-0.933,1.298
			c-0.654,0.817-2.088,3.721-2.088,3.721l0.328,0.643c0,0-0.873,0.763-1.31,1.708c-0.436,0.944-0.626,1.772-0.626,1.772
			l-0.902,0.983l0.244,0.005l-0.507,0.829l0.094,0.165c0,0-0.399,0.358-0.778,0.888c-0.379,0.53-0.193,0.974-0.193,0.974
			l-0.364,0.518l0.697-0.095l0.144,0.113l0.276-0.324l0.548,0.673c0,0-0.417-1.061-0.298-1.462c0.119-0.401,0.496-0.858,0.496-0.858
			l0.273,0.385c0,0,0.19-0.876,0.204-0.953c0.014-0.077,0.487-1.025,0.487-1.025l0.202,0.261c0,0,0.055-0.843,0.093-0.891
			c0.038-0.048,0.374-0.346,0.872-1.277c0.497-0.931,1.118-2.458,1.118-2.458s0.974-0.92,1.696-2.066
			c0.722-1.146,1.374-2.979,1.374-2.979s0.616,1.457,1.166,2.032c0.55,0.575,1.308,0.029,1.308,0.029s0.534,0.721,1.667,0.391
			c1.133-0.33,1.545-1.299,1.425-1.938c-0.12-0.639-2.426-2.573-2.426-2.573l0.271-0.104c0,0,2.118,2.126,3.084,2.697
			c0.966,0.572,2.894,0.235,2.963,0.408c0.069,0.173,0.372,1.439,0.372,1.439l0.715,0.309l-0.504,0.686c0,0-0.587,0.55-0.583,1.516
			c0.003,0.966-0.207,2.735-0.207,2.735s0.519,0.342,0.705,0.749c0.187,0.407,0.184,1.092,0.091,1.983
			c-0.093,0.891,0.435,3.043,0.43,3.238s-0.316,0.47-0.316,0.47l0.407-0.162c0,0,0.009,0.159,0.162,0.407
			c0.154,0.248,0.265,0.202,0.265,0.202l-0.082,2.053c0,0-1.815,1.868-2.609,2.401c-0.794,0.533-2.169,0.723-2.169,0.723
			l0.527,0.513l-0.573-0.086c0,0,0.211,0.421,1.198,1.151c0.987,0.731,3.497,2.254,3.497,2.254s-0.022,0.99-0.193,1.011
			c-0.172,0.021-0.277-0.202-0.277-0.202s0.269,0.569,0.609,0.686C1302.328,129.324,1302.545,129.5,1302.545,129.5z
			 M1291.115,101.375c-0.114,0.205-0.42,0.761-0.42,0.761s-0.468-0.39-0.796-0.519c-0.327-0.129-0.538-0.574-0.538-0.574
			l0.469-1.286c0,0,0.254,0.14,0.626,0.466c0.372,0.326,0.765,0.799,0.764,0.836C1291.219,101.096,1291.23,101.17,1291.115,101.375z
			 M1307.463,108.574c0,0,0.073-0.42-0.133-0.645c-0.206-0.225-0.492-0.561-0.87-0.505c-0.378,0.056-0.645,0.142-0.645,0.142
			s-1.176-0.347-1.41-0.545c-0.234-0.198-0.205-0.702-0.341-0.769c-0.136-0.067-0.228-0.069-0.228-0.069s0.188-0.207-0.006-0.569
			c-0.194-0.362-0.374-0.504-0.584-0.948c-0.211-0.445-0.267-0.813-0.267-0.813s0.334,0.246,0.637,0.243
			c0.303-0.002,0.528-0.218,0.528-0.218l0.484,0.084c0,0-0.398,0.578-0.142,1.043c0.256,0.464,0.955,1.186,1.887,1.372
			c0.932,0.186,1.608-0.139,1.608-0.139L1307.463,108.574z M1302.69,119.963c0,0-0.056-1.212,0.065-1.301
			c0.121-0.089,0.246-0.774,0.246-0.774l0.445,0.193l-0.511-0.571c0,0-0.064-0.414-0.137-1.287
			c-0.073-0.873-0.242-1.491-0.507-2.387c-0.265-0.896-0.529-1.8-0.5-1.864c0.029-0.064,0.507-1.374,0.71-1.847
			c0.203-0.472-0.19-1.371-0.114-1.498c0.076-0.127,0.309-0.69,0.309-0.69l0.027,0c0,0,0.514,0.837,1.441,1.206
			c0.927,0.369,2.292-0.335,2.292-0.335s0.049,1.111,0.083,2.047c0.034,0.936-0.048,2.2-0.048,2.2s-0.586,0.804-0.933,1.961
			c-0.347,1.157-0.332,1.534-0.332,1.534s-0.352,0.341-1.112,1.535C1303.356,119.281,1302.69,119.963,1302.69,119.963z"/>
	</g>
	<path style="fill-rule:evenodd;clip-rule:evenodd;fill:#7F8C8D;" d="M1100.5,115.433c-10.782,0-14.258-7.588-14.781-16.931
		c-0.666,0.155-0.988-0.018-0.988-0.018s-0.401,0.836-0.698,2.58c-0.296,1.742-0.575,4.67-0.68,5.716
		c-0.105,1.046-0.897,1.16-0.897,1.16s0.47,0.348,0.401,1.673c-0.07,1.325-0.836,4.393-1.081,5.124
		c-0.244,0.732-1.133,1.046-1.133,1.046s0.296,0.61,0.017,1.744c-0.279,1.133-1.063,2.492-1.603,3.259
		c-0.54,0.767-1.29,0.698-1.29,0.698s0.314,0.558,0.192,1.341c-0.122,0.784-1.29,2.527-1.882,3.4
		c-0.593,0.871-1.325,1.115-1.325,1.115s-0.157,0.33,0.278,1.046c0.436,0.714,1.169,1.097,1.169,1.097s-0.784,0.175-1.377-0.523
		c-0.592-0.696-0.592-1.481-0.592-1.481s-0.784-0.226-0.366-1.307c0.418-1.082,2.806-5.09,2.806-5.09s-0.714-0.818-0.209-1.655
		c0.506-0.836,2.754-4.131,2.754-4.131s-0.606-0.598-0.407-1.705c0.198-1.108,2.396-5.999,2.396-5.999s-0.686-0.458-0.664-1.222
		c0.02-0.763,1.671-6.641,1.897-7.282c0.227-0.639,0.903-1.173,0.903-1.173s-0.497-0.415,0.083-1.866
		c0.411-1.028,1.723-2.333,2.457-3.011c0.114-0.958,0.276-1.914,0.487-2.86c-1.124,0.628-2.049,0.079-2.049,0.079
		s-2.47,4.323-3.416,5.597c-0.945,1.273-1.755,1.293-1.755,1.293s-1.158,2.683-2.605,3.975c-1.447,1.293-2.026,0.944-2.026,0.944
		s-1.177,1.91-2.431,2.702c-1.254,0.791-2.219,0.52-2.219,0.52s-3.269,2.026-3.874,2.322c-0.604,0.297-1.273,0.064-1.273,0.064
		s-0.425,0.373-0.567,1.017c-0.141,0.644,0.026,1.659,0.026,1.659s-0.669-0.81-0.592-1.671c0.078-0.863,0.669-1.466,0.669-1.466
		s-0.347-0.644,0.245-1.042c0.592-0.4,4.636-2.09,4.636-2.09s-0.366-0.811,0.341-1.257c0.707-0.445,4.214-2.093,4.214-2.093
		s-0.628-0.838-0.053-1.44c0.576-0.602,4.371-3.219,4.371-3.219s-0.55-0.706,0.235-1.727c0.785-1.021,3.612-4.083,4.083-4.529
		c0.472-0.445,1.134-0.53,1.134-0.53s-0.244-0.868,0.569-1.655c0.615-0.594,2.793-1.621,3.821-2.087
		c0.328-0.772,0.695-1.534,1.103-2.284c-2.044-0.098-2.768-1.14-2.768-1.14s-0.155,0.49-0.735,0.967
		c-0.58,0.477-3.158,2.204-4.151,2.72c-0.993,0.516-1.418-0.258-1.418-0.258s0.039,0.594-0.567,0.929
		c-0.606,0.336-2.488,1.173-3.726,1.444c-1.238,0.271-1.508-0.362-1.508-0.362s-0.232,0.633-0.851,0.723
		c-0.619,0.09-1.367,0.284-2.54,0.271c-1.173-0.012-1.651-0.67-1.651-0.67s-0.49,0.27-1.135,0.193
		c-0.645-0.078-1.972-0.295-2.811-0.657c-0.838-0.361-0.924-1.115-0.924-1.115s-0.575,0.173-1.128,0.673
		c-0.553,0.498-0.824,1.171-0.824,1.171s-0.173-0.803,0.456-1.463c0.628-0.662,1.309-0.838,1.309-0.838s0.257-0.793,1.354-0.677
		c1.098,0.117,3.667,1.354,3.667,1.354s0.094-0.771,0.958-0.817c0.864-0.047,1.938,0.046,2.709,0.209
		c0.771,0.164,1.145,0.398,1.145,0.398s-0.374-0.864,0.817-1.122c1.191-0.257,2.756-0.56,3.41-0.77
		c0.654-0.211,1.332-0.118,1.332-0.118s-0.164-0.746,0.583-1.143c0.748-0.397,4.041-1.775,4.764-2.056
		c0.724-0.28,1.192-0.047,1.192-0.047s0.024-0.91,1.401-1.214c1.019-0.225,2.868-0.003,3.762,0.129
		c0.368-0.488,0.757-0.968,1.166-1.441c0.203-0.233,0.283-0.448,0.329-0.666c-0.745-0.265-1.714-0.628-2.302-0.931
		c-1.062-0.545-0.988-1.426-0.988-1.426s-0.217,0.739-1.55,1.913c-1.333,1.173-3.303,1.971-4.085,2.318
		c-0.782,0.348-1.202-0.362-1.202-0.362s-0.073,0.667-0.84,1.13c-0.768,0.463-3.651,1.259-4.708,1.565
		c-1.057,0.304-1.506-0.537-1.506-0.537s-0.304,0.856-1.391,0.899c-1.087,0.043-2.202,0.203-3.302-0.101
		c-1.101-0.305-1.377-1-1.377-1s-0.492,0.681-1.521,0.623c-1.029-0.058-2.767-0.58-3.839-1.333
		c-1.072-0.753-1.623-1.579-1.623-1.579s-0.97,0.304-1.332,0.969c-0.362,0.667-0.289,1.595-0.289,1.595s-0.609-1.116-0.088-1.986
		c0.522-0.868,1.376-1.143,1.376-1.143s0.319-0.61,1.304-0.508c0.985,0.101,3.709,1.072,4.549,1.551
		c0.84,0.477,1.492,0.652,1.492,0.652s0.29-0.479,1.115-0.71c0.826-0.233,1.565-0.015,2.578,0.419
		c1.015,0.436,2.275,0.348,2.275,0.348s0.029-0.942,0.739-1.318c0.709-0.377,1.956-0.537,3.679-0.564
		c1.724-0.031,2.289-0.406,2.289-0.406s-0.319-1.072,0.492-1.391c0.811-0.319,5.056-1.94,5.708-2.114
		c0.651-0.175,1.291-0.074,1.291-0.074s0.828-0.911,2.16-0.745c0.989,0.125,2.255,0.904,2.841,1.298
		c0.31-0.232,0.669-0.37,1.202-0.352c0.321,0.011,0.44,0.119,0.449,0.43c0.037,1.254,0.596,1.146,1.07,0.191
		c0.449-0.903,0.235-1.313-0.097-1.659c-0.331-0.347-0.73-0.883-0.175-1.268c0.555-0.386,0.163-0.766,0.425-1.334
		c0.261-0.569,1.175-1.867,2.075-1.273c0.415,0.275,0.739,0.476,1.036,0.476c0.298,0,0.622-0.201,1.037-0.476
		c0.899-0.594,1.814,0.705,2.075,1.273c0.262,0.569-0.13,0.949,0.425,1.334c0.556,0.384,0.156,0.921-0.176,1.268
		c-0.332,0.345-0.546,0.756-0.097,1.659c0.474,0.954,1.033,1.063,1.07-0.191c0.009-0.311,0.128-0.419,0.449-0.43
		c0.533-0.018,0.892,0.121,1.202,0.352c0.587-0.394,1.852-1.173,2.841-1.298c1.332-0.166,2.16,0.745,2.16,0.745
		s0.64-0.101,1.292,0.074c0.652,0.173,4.896,1.795,5.707,2.114c0.811,0.319,0.492,1.391,0.492,1.391s0.565,0.376,2.289,0.406
		c1.724,0.028,2.969,0.187,3.679,0.564c0.71,0.376,0.739,1.318,0.739,1.318s1.26,0.087,2.274-0.348
		c1.014-0.434,1.753-0.652,2.579-0.419c0.826,0.232,1.115,0.71,1.115,0.71s0.652-0.175,1.492-0.652
		c0.841-0.479,3.564-1.449,4.549-1.551c0.985-0.103,1.304,0.508,1.304,0.508s0.854,0.275,1.376,1.143
		c0.522,0.87-0.087,1.986-0.087,1.986s0.072-0.928-0.29-1.595c-0.362-0.666-1.332-0.969-1.332-0.969s-0.551,0.825-1.623,1.579
		c-1.072,0.753-2.811,1.275-3.839,1.333c-1.028,0.058-1.521-0.623-1.521-0.623s-0.275,0.695-1.376,1
		c-1.101,0.304-2.216,0.144-3.302,0.101c-1.087-0.043-1.391-0.899-1.391-0.899s-0.449,0.841-1.506,0.537
		c-1.057-0.305-3.94-1.101-4.708-1.565s-0.841-1.13-0.841-1.13s-0.42,0.71-1.202,0.362c-0.782-0.347-2.753-1.144-4.086-2.318
		c-1.333-1.173-1.55-1.913-1.55-1.913s0.074,0.881-0.988,1.426c-0.588,0.302-1.556,0.666-2.302,0.931
		c0.046,0.218,0.127,0.433,0.329,0.666c0.409,0.473,0.797,0.953,1.166,1.441c0.894-0.132,2.743-0.354,3.762-0.129
		c1.377,0.304,1.401,1.214,1.401,1.214s0.467-0.233,1.191,0.047c0.723,0.28,4.017,1.659,4.764,2.056
		c0.747,0.397,0.584,1.143,0.584,1.143s0.677-0.093,1.331,0.118c0.654,0.209,2.219,0.513,3.41,0.77
		c1.191,0.258,0.817,1.122,0.817,1.122s0.374-0.234,1.145-0.398c0.771-0.164,1.845-0.257,2.709-0.209
		c0.864,0.046,0.958,0.817,0.958,0.817s2.569-1.237,3.667-1.354c1.098-0.116,1.354,0.677,1.354,0.677s0.68,0.176,1.309,0.838
		c0.629,0.66,0.456,1.463,0.456,1.463s-0.271-0.673-0.824-1.171c-0.553-0.499-1.128-0.673-1.128-0.673s-0.085,0.754-0.924,1.115
		c-0.838,0.362-2.166,0.58-2.811,0.657c-0.644,0.078-1.135-0.193-1.135-0.193s-0.477,0.657-1.65,0.67
		c-1.173,0.014-1.922-0.18-2.54-0.271c-0.619-0.09-0.851-0.723-0.851-0.723s-0.271,0.633-1.508,0.362
		c-1.238-0.27-3.12-1.108-3.726-1.444c-0.606-0.336-0.567-0.929-0.567-0.929s-0.425,0.774-1.418,0.258
		c-0.993-0.516-3.572-2.243-4.152-2.72c-0.58-0.477-0.734-0.967-0.734-0.967s-0.725,1.042-2.768,1.14
		c0.408,0.75,0.775,1.512,1.103,2.284c1.027,0.466,3.206,1.494,3.82,2.087c0.814,0.786,0.569,1.655,0.569,1.655
		s0.663,0.085,1.134,0.53c0.471,0.445,3.298,3.508,4.083,4.529c0.785,1.021,0.236,1.727,0.236,1.727s3.795,2.617,4.37,3.219
		c0.576,0.602-0.053,1.44-0.053,1.44s3.507,1.648,4.214,2.093s0.341,1.257,0.341,1.257s4.044,1.691,4.636,2.09
		c0.592,0.398,0.245,1.042,0.245,1.042s0.592,0.603,0.669,1.466c0.077,0.861-0.592,1.671-0.592,1.671s0.167-1.015,0.026-1.659
		c-0.141-0.644-0.566-1.017-0.566-1.017s-0.669,0.233-1.273-0.064c-0.605-0.295-3.873-2.322-3.873-2.322s-0.965,0.27-2.219-0.52
		c-1.255-0.792-2.431-2.702-2.431-2.702s-0.579,0.348-2.026-0.944c-1.447-1.293-2.606-3.975-2.606-3.975s-0.81-0.019-1.755-1.293
		c-0.945-1.273-3.416-5.597-3.416-5.597s-0.925,0.549-2.049-0.079c0.212,0.946,0.374,1.902,0.488,2.86
		c0.734,0.678,2.047,1.983,2.457,3.011c0.581,1.451,0.083,1.866,0.083,1.866s0.676,0.534,0.903,1.173
		c0.227,0.641,1.877,6.519,1.897,7.282c0.022,0.764-0.664,1.222-0.664,1.222s2.198,4.891,2.395,5.999
		c0.198,1.107-0.407,1.705-0.407,1.705s2.248,3.294,2.754,4.131c0.505,0.836-0.209,1.655-0.209,1.655s2.388,4.009,2.806,5.09
		c0.418,1.08-0.366,1.307-0.366,1.307s0,0.785-0.592,1.481c-0.593,0.698-1.377,0.523-1.377,0.523s0.732-0.383,1.168-1.097
		c0.435-0.716,0.278-1.046,0.278-1.046s-0.732-0.244-1.325-1.115c-0.592-0.872-1.76-2.616-1.882-3.4
		c-0.121-0.784,0.192-1.341,0.192-1.341s-0.75,0.069-1.29-0.698s-1.325-2.126-1.603-3.259c-0.279-1.133,0.017-1.744,0.017-1.744
		s-0.889-0.313-1.133-1.046c-0.243-0.731-1.01-3.799-1.081-5.124c-0.069-1.325,0.401-1.673,0.401-1.673s-0.793-0.114-0.897-1.16
		c-0.105-1.046-0.383-3.974-0.68-5.716c-0.296-1.743-0.698-2.58-0.698-2.58s-0.322,0.173-0.988,0.018
		C1114.758,107.845,1111.282,115.433,1100.5,115.433z"/>
	<path style="fill-rule:evenodd;clip-rule:evenodd;fill:#7F8C8D;" d="M900.5,127.173c-0.345-0.009-0.724-0.06-1.056-0.198
		c-0.889-0.37-5.482-2.075-9.074-5.703c-3.593-3.631-3.741-8.741-3.111-13l0.045-0.3c-1.554,1.58-2.653,1.455-2.653,1.455
		s0.17,0.152,0.133,0.643c-0.038,0.492,0.056,2.099,0.378,4.462c0.322,2.365,0.851,4.766,1.059,5.786
		c0.208,1.021-0.489,1.298-0.489,1.298s0.107,0.462-0.053,0.996c-0.16,0.534-1.993,4.68-2.207,5.09
		c-0.214,0.409-0.402,0.53-0.402,0.53s0.213,0.401-0.055,0.832c-0.268,0.431-0.698,0.435-0.698,0.435s0.45-0.327,0.456-0.678
		c0.005-0.352-0.209-0.441-0.481-0.277c-0.272,0.163-0.375,0.888-0.375,0.888s-0.137-0.411-0.03-0.838
		c0.106-0.426,0.502-0.518,0.502-0.518s-0.045-0.273,0.076-0.639c0.122-0.365,2.005-4.677,2.256-5.182
		c0.252-0.503,0.516-0.719,0.516-0.719s-0.49-0.171-0.576-0.767c-0.085-0.596-1.022-9.457-1.001-10.202
		c0.021-0.746,0.316-1.188,0.316-1.188s-0.49-0.689,0.352-1.914c0.625-0.909,2.698-2.761,3.728-3.657
		c0.531-2.577,1.083-4.693,1.317-5.254c0.191-0.456,0.482-0.785,0.715-0.995c-0.635-0.346-1.8-0.983-2.247-1.243
		c-0.629-0.365-0.907-0.658-0.907-0.658s0,0.308-0.132,0.731c-0.132,0.424-2.414,6.781-2.603,7.259
		c-0.189,0.479-0.731,0.429-0.731,0.429s0.047,0.256-0.201,0.517c-0.248,0.26-1.752,1.349-1.954,1.531
		c-0.202,0.183-0.587,0.024-0.587,0.024s0.053,0.198-0.14,0.404c-0.192,0.207-0.481,0.495-0.635,0.697
		c-0.154,0.202-0.438,0.255-0.438,0.255s0.164,0.337-0.053,0.639c-0.217,0.303-0.466,0.241-0.466,0.241s0.384-0.303,0.303-0.611
		c-0.082-0.308-0.336-0.317-0.568-0.13c-0.23,0.187-0.269,0.64-0.269,0.64s-0.188-0.303-0.082-0.64
		c0.106-0.337,0.53-0.417,0.53-0.417s-0.15-0.15,0.025-0.426c0.175-0.276,0.714-0.727,0.965-0.914
		c0.25-0.187,0.639-0.063,0.639-0.063s-0.1-0.287,0.138-0.552c0.238-0.262,1.215-0.989,1.716-1.202
		c0.501-0.214,0.694-0.215,0.694-0.215s-0.326-0.203-0.204-0.734c0.123-0.53,2.55-6.588,2.815-7.261
		c0.265-0.672,0.902-0.77,0.902-0.77s0.197-1.494,1.409-1.255c0.818,0.162,1.936,0.631,2.578,0.919
		c0.188-0.756,0.533-1.21,1.418-1.604c1.024-0.457,2.032-0.584,2.032-0.584s-0.301-0.585-0.615-1.495
		c-2.202-0.987-3.539-3.251-3.933-3.866c-0.423-0.657-0.329-1.527-0.329-1.527s-0.311-0.461-0.103-1.612
		c0.096-0.534,0.477-1.962,0.875-3.389c-0.453-0.12-0.78-0.357-0.78-0.357s-0.007,0.153-0.196,0.385
		c-0.188,0.233-4.304,3.853-4.566,4.157c-0.262,0.303-0.606,0.171-0.606,0.171s0.071,0.373-0.071,0.757
		c-0.141,0.384-0.83,2.194-0.996,2.571c-0.167,0.377-0.657,0.184-0.657,0.184s-0.21,0.43-0.377,0.788
		c-0.166,0.36-0.097,0.692-0.097,0.692s-0.403-0.315-0.236-0.726c0.167-0.411,0.411-0.892,0.411-0.892s-0.257-0.179-0.167-0.577
		c0.09-0.398,0.987-2.294,1.116-2.654c0.128-0.358,0.57-0.481,0.57-0.481s-0.178-0.345,0.262-0.773
		c0.44-0.427,4.376-3.603,4.732-3.852c0.357-0.25,0.88-0.167,0.88-0.167s0-0.487,0.761-0.476c0.078,0.001,0.202,0.01,0.359,0.025
		c0.331-1.168,0.615-2.142,0.678-2.347c0.158-0.511,0.534-0.808,0.534-0.808s-0.26-0.14-0.407-0.422
		c-0.147-0.28-0.569-1.081-0.681-1.362c-0.112-0.28,0.141-0.54,0.141-0.54s-0.33-0.042-0.485-0.331
		c-0.155-0.287-0.308-0.588-0.4-0.947c-0.091-0.358,0.203-0.54,0.203-0.54s-0.192-0.094-0.186-0.317
		c0.006-0.224,0.254-1.155,0.36-1.378c0.105-0.224,0.303-0.224,0.303-0.224s-0.192-0.565,0.224-0.701
		c0.416-0.137,0.707,0.13,0.707,0.13s-0.471-0.118-0.596,0.168c-0.124,0.286,0.032,0.491,0.267,0.496
		c0.236,0.007,0.54-0.055,0.54-0.055s-0.031,0.272-0.254,0.334c-0.223,0.062-0.487-0.03-0.487-0.03s0.128,0.191-0.053,0.563
		c-0.18,0.371-0.457,0.924-0.457,0.924s0.149,0,0.298,0.244c0.148,0.245,0.286,0.627,0.435,0.988
		c0.149,0.361-0.074,0.616-0.074,0.616s0.298,0,0.478,0.276c0.18,0.276,0.669,1.273,0.817,1.613c0.149,0.34-0.023,0.593-0.023,0.593
		s0.607,0.304,0.285,1.089c-0.218,0.533-0.519,1.199-0.88,2.115c1.727,0.219,4.16,0.573,4.488,0.624
		c0.476,0.071,0.714,0.321,0.714,0.321s0.511-0.346,0.904,0.154c0.25,0.318,0.669,1.148,0.94,1.708
		c0.361-0.028,0.551-0.032,0.551-0.032s-0.217-0.777-0.308-1.302c-0.092-0.526,0.277-1.406,1.647-1.406
		c1.37,0,1.738,0.88,1.646,1.406c-0.091,0.525-0.308,1.302-0.308,1.302s0.191,0.005,0.552,0.032c0.27-0.561,0.69-1.39,0.94-1.708
		c0.392-0.5,0.904-0.154,0.904-0.154s0.238-0.249,0.713-0.321c0.328-0.05,2.761-0.404,4.488-0.624
		c-0.361-0.916-0.662-1.582-0.879-2.115c-0.322-0.785,0.285-1.089,0.285-1.089s-0.172-0.253-0.024-0.593
		c0.148-0.34,0.636-1.337,0.817-1.613c0.18-0.276,0.477-0.276,0.477-0.276s-0.223-0.255-0.074-0.616
		c0.149-0.361,0.287-0.743,0.435-0.988c0.148-0.244,0.297-0.244,0.297-0.244s-0.276-0.553-0.456-0.924
		c-0.181-0.372-0.053-0.563-0.053-0.563s-0.263,0.092-0.487,0.03c-0.223-0.062-0.254-0.334-0.254-0.334s0.304,0.062,0.54,0.055
		c0.236-0.006,0.391-0.21,0.267-0.496c-0.124-0.286-0.596-0.168-0.596-0.168s0.291-0.267,0.708-0.13
		c0.416,0.136,0.223,0.701,0.223,0.701s0.198,0,0.303,0.224c0.106,0.223,0.354,1.154,0.361,1.378
		c0.006,0.223-0.186,0.317-0.186,0.317s0.294,0.182,0.203,0.54c-0.091,0.358-0.245,0.66-0.4,0.947
		c-0.155,0.288-0.484,0.331-0.484,0.331s0.253,0.26,0.141,0.54c-0.113,0.28-0.534,1.081-0.681,1.362
		c-0.147,0.281-0.407,0.422-0.407,0.422s0.376,0.296,0.534,0.808c0.064,0.206,0.348,1.179,0.679,2.347
		c0.157-0.015,0.28-0.024,0.358-0.025c0.761-0.012,0.761,0.476,0.761,0.476s0.523-0.084,0.88,0.167
		c0.357,0.249,4.293,3.425,4.733,3.852c0.44,0.429,0.261,0.773,0.261,0.773s0.443,0.123,0.57,0.481
		c0.129,0.36,1.026,2.257,1.116,2.654c0.09,0.398-0.167,0.577-0.167,0.577s0.245,0.48,0.411,0.892
		c0.167,0.411-0.236,0.726-0.236,0.726s0.07-0.332-0.096-0.692c-0.167-0.358-0.377-0.788-0.377-0.788s-0.491,0.193-0.657-0.184
		c-0.166-0.377-0.854-2.188-0.996-2.571c-0.141-0.384-0.071-0.757-0.071-0.757s-0.344,0.132-0.605-0.171
		c-0.263-0.303-4.378-3.923-4.566-4.157c-0.189-0.232-0.196-0.385-0.196-0.385s-0.326,0.238-0.779,0.357
		c0.397,1.427,0.778,2.855,0.875,3.389c0.207,1.151-0.104,1.612-0.104,1.612s0.094,0.87-0.329,1.527
		c-0.395,0.615-1.731,2.879-3.933,3.866c-0.313,0.91-0.615,1.495-0.615,1.495s1.008,0.126,2.032,0.584
		c0.885,0.394,1.229,0.848,1.418,1.604c0.642-0.288,1.76-0.757,2.578-0.919c1.212-0.239,1.409,1.255,1.409,1.255
		s0.637,0.098,0.902,0.77c0.265,0.673,2.692,6.732,2.815,7.261c0.122,0.531-0.204,0.734-0.204,0.734s0.193,0.001,0.695,0.215
		c0.501,0.213,1.478,0.94,1.716,1.202c0.238,0.264,0.137,0.552,0.137,0.552s0.389-0.124,0.639,0.063
		c0.25,0.187,0.789,0.639,0.964,0.914c0.176,0.276,0.025,0.426,0.025,0.426s0.424,0.08,0.53,0.417
		c0.106,0.337-0.081,0.64-0.081,0.64s-0.039-0.453-0.27-0.64c-0.231-0.187-0.486-0.178-0.568,0.13
		c-0.082,0.308,0.303,0.611,0.303,0.611s-0.25,0.062-0.466-0.241c-0.217-0.302-0.053-0.639-0.053-0.639s-0.284-0.053-0.437-0.255
		c-0.155-0.202-0.443-0.49-0.635-0.697c-0.193-0.207-0.14-0.404-0.14-0.404s-0.384,0.159-0.587-0.024
		c-0.202-0.183-1.707-1.272-1.954-1.531c-0.248-0.261-0.202-0.517-0.202-0.517s-0.542,0.051-0.731-0.429
		c-0.189-0.478-2.472-6.835-2.603-7.259c-0.132-0.423-0.132-0.731-0.132-0.731s-0.277,0.293-0.906,0.658
		c-0.448,0.26-1.612,0.897-2.247,1.243c0.233,0.21,0.524,0.539,0.715,0.995c0.234,0.561,0.786,2.677,1.317,5.254
		c1.029,0.896,3.103,2.748,3.728,3.657c0.842,1.225,0.353,1.914,0.353,1.914s0.295,0.442,0.316,1.188
		c0.021,0.746-0.916,9.606-1.001,10.202c-0.085,0.596-0.575,0.767-0.575,0.767s0.264,0.216,0.515,0.719
		c0.252,0.504,2.135,4.816,2.257,5.182c0.122,0.365,0.076,0.639,0.076,0.639s0.396,0.092,0.502,0.518
		c0.107,0.426-0.03,0.838-0.03,0.838s-0.103-0.725-0.375-0.888c-0.272-0.164-0.485-0.075-0.481,0.277
		c0.005,0.35,0.456,0.678,0.456,0.678s-0.43-0.005-0.697-0.435c-0.268-0.431-0.055-0.832-0.055-0.832s-0.188-0.121-0.402-0.53
		c-0.213-0.41-2.046-4.555-2.206-5.09c-0.16-0.534-0.053-0.996-0.053-0.996s-0.697-0.277-0.489-1.298
		c0.208-1.02,0.738-3.421,1.059-5.786c0.322-2.363,0.417-3.971,0.379-4.462c-0.038-0.492,0.132-0.643,0.132-0.643
		s-1.099,0.125-2.653-1.455l0.045,0.3c0.63,4.259,0.482,9.369-3.111,13c-3.593,3.628-8.186,5.333-9.074,5.703
		C901.224,127.114,900.844,127.164,900.5,127.173L900.5,127.173z M909.89,80.811c-1.394,0.134-4.026,0.419-4.512,0.472
		c-0.612,0.067-0.735-0.101-0.735-0.101s-0.245,0.324-0.568,0.614c-0.159,0.142-0.469,0.441-0.743,0.708
		c0.73,0.124,1.005,0.51,1.112,1.222c0.114,0.765-0.217,1.441-0.217,1.441s0.217-0.046,0.846-0.48
		c0.628-0.434,1.239-0.375,1.755-0.026c0.479,0.322,1.467,1.135,1.422,3.105c0.638-0.546,1.691-1.45,2.126-1.823
		c0.642-0.554,0.874-0.41,0.874-0.41s-0.66-2.73-1.267-4.46C909.951,80.983,909.921,80.896,909.89,80.811L909.89,80.811z
		 M891.11,80.811c-0.03,0.085-0.062,0.172-0.092,0.261c-0.607,1.73-1.267,4.46-1.267,4.46s0.232-0.144,0.874,0.41
		c0.434,0.373,1.488,1.278,2.125,1.823c-0.045-1.97,0.944-2.784,1.422-3.105c0.516-0.348,1.127-0.408,1.755,0.026
		c0.628,0.434,0.846,0.48,0.846,0.48s-0.331-0.676-0.217-1.441c0.106-0.712,0.381-1.098,1.112-1.222
		c-0.273-0.267-0.584-0.565-0.743-0.708c-0.323-0.29-0.568-0.614-0.568-0.614s-0.122,0.168-0.735,0.101
		C895.136,81.23,892.504,80.946,891.11,80.811z"/>
	<path style="fill-rule:evenodd;clip-rule:evenodd;fill:#7F8C8D;" d="M697.305,62.778c0.676-4.76-0.213-3.832-1.4-0.092
		c-0.262,0.022-0.518,0.05-0.769,0.084c-0.835-0.851-1.151-1.906-0.122-3.487c-1.049-0.598-1.599-1.464,0.255-3.62
		c-3.475-1.034-0.994-4.004-0.037-6.478c-6.083,3.277-5.538,8.952-3.756,15.075c-0.451,0.422-0.828,0.952-1.118,1.616
		c-0.092-0.115-0.188-0.215-0.284-0.296c-0.014-0.327-0.097-0.706-0.252-1.085c-0.22-0.538-0.535-0.959-0.841-1.17
		c0.015-0.348-0.063-0.779-0.24-1.211c-0.215-0.529-0.528-0.938-0.828-1.13c0.038-0.345-0.033-0.799-0.218-1.253
		c-0.206-0.504-0.504-0.894-0.791-1.074c-0.002-0.319-0.102-0.718-0.3-1.11c-0.228-0.452-0.533-0.791-0.812-0.943
		c-0.036-0.299-0.176-0.666-0.407-1.013c-0.262-0.393-0.582-0.674-0.859-0.784c-0.05-0.257-0.173-0.565-0.36-0.873
		c-0.22-0.361-0.484-0.649-0.727-0.816c-0.038-0.256-0.162-0.563-0.361-0.854c-0.205-0.301-0.45-0.525-0.671-0.636
		c-0.05-0.239-0.169-0.514-0.347-0.774c-0.225-0.329-0.496-0.565-0.732-0.665c-0.034-0.233-0.146-0.513-0.328-0.78
		c-0.346-0.506-0.814-0.772-1.043-0.592c-0.228,0.181-0.131,0.74,0.215,1.247c0.184,0.27,0.403,0.471,0.601,0.573
		c0.02,0.271,0.149,0.616,0.371,0.94c0.206,0.301,0.45,0.525,0.671,0.637c0.05,0.238,0.169,0.513,0.347,0.774
		c0.188,0.274,0.407,0.484,0.612,0.604c0.048,0.261,0.172,0.575,0.364,0.89c0.233,0.384,0.519,0.687,0.773,0.846
		c0.02,0.311,0.164,0.708,0.414,1.082c0.229,0.344,0.503,0.602,0.753,0.735c-0.003,0.322,0.099,0.73,0.301,1.131
		c0.208,0.412,0.479,0.731,0.737,0.898c-0.031,0.341,0.041,0.782,0.221,1.223c0.194,0.477,0.473,0.851,0.745,1.043
		c-0.055,0.37,0.018,0.874,0.223,1.378c0.198,0.486,0.477,0.87,0.754,1.079c-0.029,0.377,0.052,0.859,0.248,1.341
		c0.181,0.442,0.425,0.805,0.677,1.038c0.003,0.363,0.091,0.796,0.268,1.228c0.139,0.341,0.314,0.636,0.502,0.866
		c-0.036,0.358-0.059,0.738-0.067,1.142c-0.457,0.025-0.797,0.788-0.757,1.704c0.033,0.762,0.319,1.396,0.677,1.579
		c-0.4,9.974-1.915,20.919,6.16,23.512c-1.105,0.497-1.992,1.161-2.552,1.92c-2.869-1.349-9.891-3.868-10.602-3.054
		c-1.733-3.774-2.388-9.729-5.2-11.321c-0.543-1.438-1.047-2.992-2.225-2.562c-1.187-0.697-1.565-2.099-1.385-3.984
		c-0.133-0.046-0.265-0.092-0.397-0.139c-0.506,2.204-1.578,3.757-2.906,5.014c0.042,0.102,0.085,0.203,0.126,0.305
		c1.24-0.962,2.436-1.309,3.538-0.307c-0.614,1.283,0.651,1.735,1.804,2.236c-1.958,1.652,0.919,2.37,2.847,5.826
		c1.264,2.267,0.762,5.692,3.129,6.549c2.26,1.504,4.249,2.574,10.844,4.425c0.439,1.008,1.459,1.86,2.829,2.43
		c-0.521,0.318-0.962,0.682-1.303,1.08c-2.726,0.138-7.192,0.196-8.931,1.747c-2.576,1.877-4.176,5.942-5.581,9.399
		c-1.064,2.619-3.025,4.189-2.118,4.708c-0.235,1.057-2.351,1.082-1.821,2.425c-2.281,0.858-3.403,2.731-3.992,4.761
		c0.117,0.03,0.233,0.059,0.35,0.088c1.429-2.067,2.662-2.283,3.465,1.572c0.142-0.011,0.284-0.021,0.427-0.032
		c-0.751-3.477-0.464-4.986,0.297-5.601c0.815,0.578,1.835-0.328,2.947-1.909c1.794-0.105,0.508-7.734,6.461-13.442
		c2.347,0.663,5.755-0.015,8.283-0.179c0.566,0.762,1.522,1.387,2.716,1.793c-2.184,0.789-3.741,2.153-4.079,3.699
		c-1.962,1.769-5.311,3.637-6.882,4.772c-2.025,0.762-1.543,5.417-2.47,8.96c-0.716,2.734-2.493,6.077-1.457,6.217
		c0.18,1.067-1.716,2.227-0.719,3.271c-1.789,1.655-2.123,3.812-1.903,5.915c0.119-0.016,0.238-0.033,0.357-0.05
		c0.544-2.453,1.169-3.972,3.366-0.705c0.128-0.063,0.256-0.127,0.383-0.191c-2.007-2.937-1.873-3.589-1.401-4.445
		c0.974,0.228,1.304-1.204,1.737-3.087c2.778,0.913-2.036-6.436,3.831-14.498c2.013-0.225,4.172-1.931,6.121-3.196
		c0.198,0.204,0.421,0.398,0.666,0.58c-0.858,1.421-1.348,2.825-1.467,4.213c-1.02,1.801-1.236,3.567-1.087,5.317
		c-1.045,2.783-0.521,4.693-0.21,6.722c-0.191,2.822,0.511,5.029,1.619,6.957c0.103,3.534,1.414,4.725,2.763,5.841
		c2.759,4.122,4.768,5.621,6.351,5.447c1.592,0.036,3.464-1.631,5.856-5.976c1.247-1.228,2.45-2.528,2.247-6.058
		c0.938-2.017,1.446-4.277,1.011-7.071c0.134-2.048,0.491-3.997-0.792-6.679c-0.003-1.756-0.371-3.497-1.543-5.203
		c-0.239-1.372-0.848-2.729-1.826-4.071c0.232-0.206,0.439-0.421,0.621-0.645c2.022,1.087,4.275,2.547,6.264,2.595
		c6.544,7.524,2.383,15.263,5.072,14.112c0.596,1.839,1.048,3.236,1.998,2.925c0.544,0.811,0.734,1.449-1.011,4.55
		c0.133,0.052,0.265,0.105,0.398,0.156c1.906-3.446,2.66-1.986,3.414,0.41c0.12,0.006,0.24,0.013,0.36,0.019
		c0.037-2.114-0.483-4.234-2.408-5.728c0.902-1.126-1.087-2.118-0.999-3.197c1.02-0.229-1.04-3.406-1.99-6.068
		c-1.231-3.45-1.155-8.129-3.237-8.713c-1.636-0.977-5.045-2.513-7.162-4.078c-0.466-1.517-2.138-2.746-4.388-3.344
		c1.188-0.522,2.105-1.254,2.593-2.093c2.518-0.038,5.885,0.311,8.122-0.535c6.424,5.173,5.803,12.884,7.6,12.833
		c1.245,1.478,2.339,2.293,3.101,1.646c0.81,0.546,1.227,2.025,0.78,5.554c0.142-0.001,0.285-0.003,0.427-0.005
		c0.466-3.911,1.714-3.802,3.316-1.866c0.114-0.039,0.228-0.078,0.341-0.118c-0.763-1.972-2.043-3.74-4.389-4.398
		c0.411-1.385-1.698-1.226-2.024-2.259c0.858-0.596-1.231-1.99-2.518-4.507c-1.698-3.322-3.644-7.234-6.373-8.881
		c-1.859-1.388-6.287-1.067-9.018-0.968c-0.361-0.339-0.806-0.639-1.319-0.893c1.367-0.713,2.33-1.696,2.646-2.788
		c6.296-2.381,8.173-3.613,10.279-5.294c2.283-1.058,1.488-4.427,2.551-6.795c1.621-3.61,4.425-4.575,2.332-6.051
		c1.106-0.599,2.326-1.159,1.604-2.384c1.01-1.094,2.233-0.851,3.551-0.001c0.033-0.105,0.066-0.21,0.1-0.315
		c-1.432-1.137-2.634-2.592-3.33-4.743c-0.128,0.058-0.256,0.115-0.384,0.173c0.341,1.862,0.088,3.291-1.035,4.088
		c-1.211-0.327-1.578,1.266-1.995,2.745c-2.663,1.83-2.8,7.82-4.2,11.729c-0.776-0.747-7.512,2.347-10.27,3.944
		c-0.603-0.649-1.475-1.188-2.527-1.57c7.598-3.199,5.075-14.219,4.458-23.767c0.448-0.043,0.779-0.799,0.74-1.702
		c-0.038-0.887-0.419-1.601-0.859-1.632c0-0.137,0.001-0.275,0.002-0.412c0.06-0.364,0.075-0.712,0.051-1.045
		c0.133-0.221,0.251-0.484,0.341-0.776c0.138-0.446,0.188-0.884,0.16-1.247c0.23-0.253,0.443-0.636,0.585-1.092
		c0.154-0.497,0.193-0.985,0.131-1.358c0.258-0.232,0.503-0.639,0.658-1.14c0.161-0.52,0.19-1.028,0.104-1.392
		c0.255-0.214,0.499-0.612,0.652-1.104c0.141-0.455,0.174-0.901,0.114-1.237c0.243-0.189,0.486-0.53,0.657-0.959
		c0.166-0.416,0.232-0.831,0.201-1.152c0.238-0.154,0.489-0.435,0.687-0.798c0.217-0.395,0.325-0.802,0.319-1.114
		c0.239-0.181,0.497-0.508,0.697-0.911c0.163-0.33,0.26-0.654,0.285-0.917c0.194-0.138,0.394-0.366,0.557-0.655
		c0.156-0.276,0.25-0.56,0.279-0.801c0.211-0.131,0.435-0.375,0.614-0.693c0.193-0.343,0.292-0.697,0.289-0.969
		c0.189-0.119,0.389-0.338,0.55-0.623c0.301-0.534,0.349-1.1,0.106-1.26c-0.243-0.16-0.686,0.146-0.988,0.681
		c-0.158,0.281-0.246,0.57-0.259,0.805c-0.227,0.12-0.476,0.379-0.671,0.725c-0.156,0.276-0.25,0.56-0.279,0.802
		c-0.211,0.131-0.435,0.375-0.613,0.692c-0.174,0.307-0.271,0.624-0.286,0.883c-0.227,0.186-0.465,0.497-0.653,0.875
		c-0.16,0.323-0.256,0.64-0.284,0.901c-0.266,0.134-0.561,0.442-0.788,0.856c-0.201,0.366-0.309,0.743-0.318,1.045
		c-0.265,0.174-0.54,0.54-0.727,1.009c-0.163,0.407-0.229,0.814-0.203,1.132c-0.27,0.204-0.534,0.618-0.695,1.138
		c-0.145,0.469-0.177,0.927-0.109,1.267c-0.283,0.218-0.559,0.652-0.727,1.198c-0.138,0.446-0.178,0.882-0.134,1.227
		c-0.287,0.237-0.565,0.683-0.737,1.239c-0.121,0.391-0.171,0.775-0.157,1.103c-0.099,0.1-0.197,0.224-0.289,0.367
		c-0.349-0.423-0.788-0.809-1.303-1.16c1.321-6.41,1.515-12.298-4.965-15.096c1.168,2.383,3.895,5.127,0.524,6.458
		c2.032,1.987,1.56,2.897,0.567,3.584c1.137,1.454,0.947,2.517,0.228,3.425c-0.227-0.068-0.458-0.134-0.694-0.198
		c-2.114-5.012-2.596-2.126-1.109,0.622c0.222,0.411-1.078-0.692-1.146-0.87c-0.18-0.459-1.31-0.421-1.498-0.018
		C698.114,62.202,697.235,63.271,697.305,62.778L697.305,62.778z"/>
	<g>
		<path style="fill:#7F8C8D;" d="M512.098,74.276c-0.023-0.061-0.261-0.627-0.276-0.628c-0.181-0.01-0.438,0.04-0.585-0.056
			c0.227,0.025,0.379-0.008,0.518-0.133c-0.192,0.004-0.497,0.009-0.669-0.075c0.275,0.025,0.422-0.009,0.618-0.101
			c-0.147,0.049-0.611,0.08-0.713-0.052c0.122,0.03,0.255,0.039,0.379-0.003c0.093-0.032,0.123-0.052,0.246-0.118
			c-0.215,0.018-0.487,0.037-0.694-0.029c0.227-0.018,0.372-0.011,0.58-0.124c-0.246,0.034-0.566,0.092-0.806-0.018
			c0.309,0.028,0.476-0.052,0.684-0.142c-0.228,0.057-0.582,0.046-0.774,0.028c0.389-0.033,0.478-0.113,0.607-0.148
			c-0.242,0.03-0.471,0.071-0.718,0.054c0.104-0.051,0.229-0.045,0.339-0.086c0.108-0.041,0.193-0.128,0.309-0.134
			c-0.211,0.045-0.457,0.108-0.683,0.087c0.147-0.029,0.28-0.069,0.401-0.129c0.09-0.045,0.164-0.062,0.259-0.153
			c-0.228,0.063-0.629,0.098-0.926,0.073c0.107-0.044,0.274-0.045,0.398-0.09c0.131-0.047,0.218-0.129,0.338-0.194
			c-0.207,0.077-0.603,0.169-0.822,0.121c0.38-0.024,0.506-0.147,0.69-0.176c-0.237-0.015-0.521,0.138-0.738,0.023
			c0.158-0.007,0.299-0.011,0.448-0.079c0.094-0.043,0.198-0.086,0.292-0.138c-0.271,0.02-0.563,0.079-0.834,0.057
			c0.188-0.051,0.503-0.055,0.669-0.209c-0.231,0.082-0.555,0.005-0.836,0.12c0.204-0.165,0.56-0.127,0.797-0.249
			c-0.209,0.056-0.65,0.099-0.896,0.02c0.261,0.014,0.529-0.051,0.763-0.182c-0.269,0.081-0.711,0.13-0.91,0.03
			c0.228,0.014,0.47,0.014,0.76-0.066c-0.256,0.014-0.619,0.038-0.798-0.095c0.214,0.057,0.611,0.096,0.757-0.028
			c-0.114-0.106-0.028-0.191-0.021-0.309c0.008-0.137,0.044-0.094-0.065-0.205c-0.149-0.151-0.39-0.274-0.581-0.36
			c-0.342-0.152-0.741-0.19-0.741-0.19c0.076-0.247,0.646-0.114,0.968,0.019c0.323,0.133,0.627,0.399,0.627,0.399
			c0.076-0.076,0.019-0.304,0.019-0.304c-0.076-0.57-0.836-0.665-1.006-0.646c-0.171,0.019-0.076-0.152-0.076-0.152
			c1.538-0.095,1.443,1.234,1.443,1.234c1.481,1.101,1.5,3.456,1.5,3.456s0.323,0.399,0.437,0.57
			c0.114,0.171-0.057,0.494-0.057,0.494l0.323,1.538c0.323,0.285,0.152,0.836,0.152,0.836l0.304,1.177
			c0.342,0.171,0.266,0.741,0.266,0.741l0.456,1.367c0.323-0.076,0.304,0.57,0.304,0.57c0.38,0.779,0.741,3.969,0.741,3.969
			c0.114-0.114,0.437-0.133,0.437-0.133c-0.209,0.19-0.361,0.513-0.361,0.513s0.171,0.38-0.057,1.139
			c-0.228,0.76-0.665,4.368-0.665,4.368s-0.095,1.595-0.323,2.905c-0.228,1.31-0.589,1.329-0.589,1.329
			c0.095,0.133,0.038,0.646-0.57,0.949c-0.608,0.304-3.399,1.158-3.399,1.158c0.911,1.538,0.304,3.228,0.304,3.228
			c1.956,0.93,1.899,3.437,1.899,3.437c0.817,0.247,1.215,1.481,1.215,1.481c0.399,0.095,0.494,0.646,0.494,0.646
			c0.475,0.152,0.494,0.76,0.494,0.76c0.456,0.171,0.513,0.893,0.513,0.893s0.171,0.133,0.342,0.551
			c0.171,0.418,0.095,1.025,0.095,1.025c0.019,0.095,0.019,0.437,0.019,0.437c-0.076,0.646-0.19,0.304-0.19,0.304
			c0.19-0.304,0.076-0.684,0.076-0.684s-0.247,0.285-0.456,0.38c-0.209,0.095-0.171-0.095-0.038-0.152
			c0.133-0.057,0.38-0.285,0.38-0.285c-0.228,0-0.342-0.437-0.266-0.893s-0.095-0.665-0.095-0.665s-0.114-0.114-0.304-0.228
			c-0.19-0.114-0.19-0.627-0.19-0.627s-0.133,0-0.304-0.171s-0.209-0.608-0.209-0.608s-0.076,0.038-0.266,0.019
			c-0.19-0.019-0.38-0.494-0.38-0.494s-0.247,0-0.38-0.285c-0.133-0.285-0.627-0.779-0.627-0.779s0.342,2.526,0.361,6.039
			s-1.595,6.57-1.595,6.57s0.76,0.855,0.779,1.063c0.019,0.209-0.095,0.247-0.095,0.247c0.608,0.513,0.361,0.855,0.361,0.855
			l0.114,0.228c0.19,0.19,0.095,0.665,0.095,0.665c0.133,0.152,0.095,0.475,0.095,0.475c0.285,0.209,0.095,0.532,0.095,0.532
			s0.247,0.361,0.266,0.627c0.019,0.266-0.19,0.494-0.19,0.494c0.266,1.861-0.57,2.298-0.57,2.298
			c0.019,0.798-0.437,1.006-0.779,1.006c-0.342,0-0.114-0.171-0.114-0.171c0.798,0.038,0.722-0.817,0.722-0.817
			s-0.399,0.133-0.646,0.228c-0.247,0.095-0.589,0.285-0.551,0.114c0.038-0.171,1.025-0.456,1.025-0.456
			c-0.057-0.209,0.114-0.418,0.475-0.874c0.361-0.456,0.285-1.329,0.285-1.329c-0.133-0.019-0.228-0.209-0.133-0.513
			c0.095-0.304,0.019-0.589,0.019-0.589c-0.38-0.133-0.076-0.38-0.076-0.551c0-0.171-0.19-0.418-0.19-0.418
			c-0.285-0.114-0.133-0.437-0.114-0.627s-0.038-0.304-0.038-0.304c-0.361-0.019-0.304-0.817-0.304-0.817s-0.19,0.133-0.19-0.057
			c0-0.19-0.513-0.93-0.513-0.93c-0.133,0.266-0.285,0.456-0.285,0.456c-1.196,1.253-3.171,1.101-3.171,1.101
			c-5.077,1.709-6.811-3.557-6.811-3.557s-0.228,0.038-0.696,0.595c-0.468,0.557-0.861,2.443-1.203,3.899
			c-0.342,1.456-0.975,1.418-0.975,1.418c0.519,0.658,0.443,1.671,0.443,1.671c0.215,0.405-0.089,0.671-0.089,0.671
			s0.114,0.089,0.291,0.506c0.177,0.418,0.114,0.886,0.114,0.886c0.342,0.481,0.279,1.051,0.279,1.051
			c0.051,0.228,0.43,0.874,0.823,1.165c0.392,0.291,0.279,0.519,0.279,0.519l1.101,0.823c-0.342,0.013-1.127-0.734-1.127-0.734
			l-0.076,0.076c-0.025,0.342,0.266,0.722,0.405,0.81c0.139,0.089,0.152,0.177,0.152,0.177c-0.62,0-0.722-1.025-0.722-1.025
			c-0.785-0.228-1-1.76-1-1.76c-0.38-0.139-0.405-1.139-0.405-1.139c-0.127-0.063-0.127-0.215-0.114-0.506
			c0.013-0.291-0.089-0.557-0.089-0.557c-0.304-0.228-0.177-0.987-0.177-0.987c-0.228-0.228-0.329-1.089-0.367-1.342
			c-0.038-0.253-0.241-0.329-0.329-0.165c-0.089,0.165-0.165,0.051-0.165,0.051c0.051-0.38,0.354-0.76,0.772-1.545
			c0.418-0.785,0.532-2.076,1.076-4.418c0.544-2.342,1.215-3.228,1.215-3.228c-0.861-6.912-0.241-8.09-0.241-8.09
			c-0.342-0.253-1.089-0.19-1.494,0.127c-0.405,0.317-1.595,1.519-2.102,2.165c-0.506,0.646-1.076,0.709-1.076,0.709
			c0.139,0.177,0.101,0.468,0.101,0.468c-0.076,0.544-0.342,0.696-0.342,0.696s0.013,0.139-0.013,0.544
			c-0.025,0.405-0.253,0.418-0.253,0.418c0.051,0.684-0.279,0.924-0.279,0.924l-1.342,2.924c0.114,0.127,0.114,0.405,0.051,0.785
			s-0.203,0.646-0.228,0.557c-0.025-0.089,0.051-0.696,0.051-0.696c-0.025-0.709-0.468-0.165-0.658,0.063
			c-0.19,0.228-0.215,0.228-0.215,0.228c-0.063-0.405,0.684-1.089,0.684-1.089c-0.089-0.342,1.481-2.836,1.481-2.836
			s-0.215-0.241,0-0.456c0.215-0.215,0.291-0.532,0.291-0.532c-0.139-0.266,0.203-0.823,0.203-0.823
			c-0.139-0.367,0.177-1.19,0.177-1.19l-0.506,0.013c0,0,0.494-0.405,0.772-0.582c0.279-0.177,0.886-0.646,1.582-1.608
			c0.696-0.962,1.481-1.608,1.481-1.608c0.874-0.785,2.393-0.722,2.393-0.722l0.317-0.19c0.544-0.747,1.747-1.025,1.747-1.025
			c-1.57-0.608-2-2.329-2-2.329s-2.697-0.456-3.887-0.671c-1.19-0.215-1.215-0.848-1.215-0.848c-0.342-0.127-0.962-1.215-1.38-1.899
			c-0.418-0.684-1.709-2.646-2.089-3.292c-0.38-0.646-0.734-0.709-0.975-0.658c-0.241,0.051-0.228,0-0.228,0
			c0.608-0.392,0.279-0.874,0.279-0.874c-0.101-0.253-0.355-0.722-0.81-1.279c-0.456-0.557-1.025-0.152-1.165-0.063
			c-0.139,0.089-0.127-0.063-0.127-0.063s0.987-0.532,0.684-1.177c-0.304-0.646-1.19-0.127-1.19-0.127
			c0.114-0.266,0.696-0.557,0.696-0.557c-0.658-0.81-2.076-3.406-2.076-3.406c-0.81-0.544-0.519-1.177-0.519-1.177l-0.481-1.279
			c-0.696-0.646-0.177-1.127-0.177-1.127l-0.076-1.545c-0.38-0.367,0.063-0.836,0.063-0.836l0.114-1.747
			c-0.24-0.443,0.152-0.848,0.152-0.848l0.772-2.709c0.114-0.684,0.494-1.468,0.494-1.468s-0.317-0.874-0.025-1.329
			s0.582-0.279,0.62-0.215c0,0-0.633,0.241-0.354,1.342l0.19,0.089c0,0,0.354-1.456,0.937-1.329c0,0,0.139,0.127-0.063,0.215
			c-0.203,0.089-0.57,0.734-0.595,1.317l0.127,0.266l-0.203,0.354c0,0,0.218-0.078,0.43,0c0.16,0.059,0.392,0,0.392,0
			s-0.228,0.139-0.43,0.051c-0.154-0.067-0.375,0.031-0.496,0.128c0.147,0.001,0.3-0.089,0.456-0.049
			c0.17,0.044,0.284,0.111,0.468,0.062c-0.248,0.147-0.543-0.114-1.002,0.125c0.311-0.036,0.64,0.068,0.939-0.027
			c-0.255,0.177-0.707,0.121-1.006,0.114c0.194,0.11,0.689,0.138,0.894,0.041c-0.191,0.186-0.718,0.137-0.97,0.086
			c0.219,0.119,0.697,0.154,0.929,0.054c-0.183,0.054-0.348,0.089-0.54,0.099c-0.155,0.008-0.292-0.032-0.44-0.038
			c0.293,0.114,0.635,0.108,0.923,0.101c-0.198,0.059-0.419,0.053-0.626,0.051c-0.141-0.001-0.332-0.063-0.462-0.013
			c0.248,0.143,0.666,0.124,1.017,0.063c-0.328,0.11-0.695,0.143-1.029,0.053c0.162,0.2,0.694,0.232,0.916,0.137
			c-0.22,0.165-0.641,0.125-0.99,0.015c0.264,0.162,0.639,0.235,0.939,0.111c-0.265,0.171-0.7,0.235-1.005,0.139
			c0.253,0.159,0.705,0.093,0.967-0.01c-0.29,0.312-0.64,0.233-1.005,0.251c0.23,0.132,0.653,0.124,0.892,0.018
			c-0.217,0.167-0.722,0.361-0.994,0.209c0.249,0.134,0.677,0.082,0.918-0.048c-0.284,0.244-0.672,0.218-1.019,0.242
			c0.226,0.096,0.686,0.115,0.891-0.054c-0.255,0.218-0.579,0.17-0.904,0.194c0.223,0.104,0.588,0.032,0.815-0.027
			c-0.242,0.162-0.606,0.302-0.903,0.277c0.241,0.079,0.677-0.036,0.868-0.198c-0.08,0.185-0.455,0.351-0.626,0.44
			c-0.069,0.036-0.327,0.126-0.436,0.126l-0.209,1.045c0,0,0.171,0.57-0.19,0.779l-0.133,1.633c0,0,0.323,0.494,0,0.817
			c0,0-0.076,1.044,0,1.519c0,0,0.513,0.304,0.247,0.893l0.475,1.31c0,0,0.627,0.285,0.627,0.968c0,0,1.367,2.222,1.956,3.019
			s1.12,1.082,1.291,1.31l-0.057-0.494c0,0,0.342,0.513,0.475,0.836c0.133,0.323,0.399,1.044,0.513,1.329
			c0.114,0.285,1.025,2.032,1.614,2.811c0.589,0.779,2.165,2.981,2.526,3.38c0.361,0.399,0.475,0.57,0.38,0.874
			c0,0,0.361-0.247,0.798,0.057c0.437,0.304,1.044,0.38,2.089,0.285c1.044-0.095,1.424-0.152,1.424-0.152s0.475-1.196,0.703-1.5
			c0.228-0.304,0.266-0.494,0.437-0.627c0.171-0.133,0.304-0.228,0.304-0.228s-0.418-0.93-0.266-1.386c0,0,0-0.133,0.114-0.266
			c0,0,0.247-0.342,0.247-0.722c0,0-0.285-0.323-0.741-0.456c-0.456-0.133-0.779-0.247-1.196-0.019c0,0-0.836-0.228-0.741-0.779
			c0,0,0.418-0.342,0.494-0.38c0.076-0.038,0.152,0.076,0.152,0.323c0,0.247-0.038,0.57,0.133,0.608
			c0.171,0.038,0.532-0.057,0.892-0.038c0.361,0.019,0.798,0.076,0.798,0.076s-0.19-0.949,0.304-1.329s1.31-0.057,1.614,0.323
			c0,0,2.108-2.507,4.064-3.171c1.956-0.665,5.032,0.874,5.013,1.5c0,0,0.038,0.19-0.323-0.038l-0.456-0.228
			c0,0-0.019,0.133-0.399-0.095c0,0,0.019,0.171-0.399-0.095c0,0-0.076,0.152-0.361-0.114c0,0-0.038,0.228-0.437-0.076
			c0,0-0.095,0.209-0.494-0.133c0,0-0.152,0.304-0.285,0.038c0,0-0.209,0.19-0.589-0.114c0,0,0.038,0.361-0.475,0.038
			c0,0-0.152,0.285-0.494,0.114c0,0-0.019,0.361-0.475,0.171c0,0,0.076,0.437-0.418,0.285c0,0,0.038,0.323-0.304,0.209
			c0,0,0.038,0.323-0.57,0.437c0,0-0.247,0.076-0.247,0.209c0,0.133-0.171,0.38-0.361,0.323c-0.19-0.057-1.728,1.443-1.728,1.443
			l0.019,0.19c0,0,1.633-0.741,1.747-0.779c0.114-0.038-0.133-0.646,0.247-0.76c0,0,0.152-0.019,0.304-0.038
			c0.152-0.019-0.114,0.703-0.437,0.893l-1.766,0.817c0,0-0.133,0.589,0.247,1.177c0,0,0.646,1.386,2.886,1.595
			c0,0,1.289,0.114,3.076-0.513c1.082-0.38,2.127-1.101,2.981-1.842c0.459-0.398,0.855-0.836,0.968-1.196
			c0.114-0.361,0.171-0.931,0.228-1.291c0,0,0.323-2.659,0.228-2.924c-0.095-0.266-0.285-1.177-0.285-1.5l0.323,0.532l0.076-0.911
			c0.152-0.152,0.057-2.678-0.437-3.893c0,0-0.418-0.285-0.19-0.589l-0.437-1.367c0,0-0.475-0.456-0.285-0.76
			c0,0-0.152-0.893-0.304-1.158c-0.152-0.266-0.342-0.399-0.247-0.76l0.095-0.114l-0.342-1.576c0,0-0.342-0.114-0.304-0.399
			C512.225,74.653,512.171,74.467,512.098,74.276z M508.768,96.148l0.228,0.209l2.735-0.456c0,0,0.456-0.475,0.893-0.532
			c0.437-0.057,0.779-0.019,0.779-0.019s-0.038-0.247,0.095-0.589c0.133-0.342,0.247-1.728,0.247-1.728s-1.766,1.538-2.545,1.956
			C510.42,95.407,508.768,96.148,508.768,96.148z"/>
		<path style="fill:#7F8C8D;" d="M502.121,102.053c0,0,0.93,0.038,1.728-0.057c0.798-0.095,1.745-0.084,2.374-0.057
			c0.893,0.038,1.728-0.057,2.545-0.38c0.817-0.323,1.272-0.646,1.272-0.646s-1.196,0.665-2.355,0.855
			c-0.801,0.131-1.728,0.076-2.45,0.057c-0.532-0.014-1.329,0.038-1.69,0.114C503.185,102.015,502.121,102.053,502.121,102.053z"/>
		<path style="fill:#7F8C8D;" d="M507.685,97.971c0,0,0.114-0.968,0.323-1.291c0.209-0.323,0.76-0.532,0.76-0.532
			s-0.57,0.133-0.817,0.475C507.704,96.964,507.685,97.971,507.685,97.971z"/>
		<path style="fill:#7F8C8D;" d="M514.193,90.989c0,0,0.165-0.038,0.279,0.127c0.114,0.165,0.013,0.823-0.139,1.177
			c-0.152,0.354-0.589,0.741-0.589,0.741s0.5-0.563,0.614-0.918c0.114-0.354,0.139-0.646,0.114-0.823
			C514.446,91.115,514.294,90.989,514.193,90.989z"/>
		<path style="fill:#7F8C8D;" d="M501.697,93.888c0,0,0.278-0.329,0.595-0.101c0.317,0.228,0.165,1.063-0.532,0.81
			c0,0,0.392,0.127,0.582-0.253C502.508,94.013,502.128,93.546,501.697,93.888z"/>
		<ellipse style="fill:#7F8C8D;" cx="502.172" cy="94.312" rx="0.196" ry="0.184"/>
		<path style="fill:#7F8C8D;" d="M501.723,95.369c0,0,0.595-0.202,0.823-0.24c0,0,0.633-0.494,0.81-0.658
			c0.177-0.165,0.304-0.354,0.304-0.354s1.519,0.823,2.519,0.874c0,0-1.127-0.051-2.481-0.785c0,0-0.658,0.696-1.089,0.962
			C502.609,95.166,501.913,95.306,501.723,95.369z"/>
		<path style="fill:#7F8C8D;" d="M500.444,103.079c0,0,3.576-1.348,5.969,0.285c0,0,1.044,0.779,1.399,1.741
			c0.354,0.962,0.987,6.381,0.38,10.685c0,0-0.304,2.329-1.367,3.798c0,0,1.114-1.671,1.317-4.532
			c0.194-2.737,0.025-7.191-0.177-8.305c-0.203-1.114-0.12-2.151-1.696-3.292C505.077,102.598,502.799,102.395,500.444,103.079z"/>
		<path style="fill:#7F8C8D;" d="M510.926,101.61c0,0-1.595-0.152-2.152,0.836l-0.405,2.152c0,0,1.924,12.381-1.19,14.913
			c0,0,1.823-0.861,1.899-6.786c0,0-0.108-5.039-0.614-8.128c0,0,0.284-1.828,0.399-2.127
			C509.034,102.028,509.895,101.585,510.926,101.61z"/>
		<path style="fill:#7F8C8D;" d="M505.533,102.978c0,0,2.076,0.228,3.393-0.633C508.926,102.345,507.964,102.902,505.533,102.978z"
			/>
		<path style="fill:#7F8C8D;" d="M499.627,112.909c0,0,0.082,1.722,0.538,3.045C500.165,115.954,499.729,114.378,499.627,112.909z"
			/>
		<path style="fill:#7F8C8D;" d="M500.279,97.743c0,0-0.513,0.684-0.089,1.981C500.191,99.724,499.862,98.616,500.279,97.743"/>
		<path style="fill:#7F8C8D;" d="M500.127,103.269c0,0-0.494,0.203-0.804,1.513C499.324,104.782,499.621,103.661,500.127,103.269z"
			/>
	</g>
	<g>
		<path style="fill:#7F8C8D;" d="M276.162,130.023c-0.133-0.841,0.708,0.089,0.708,0.089s-0.62-0.709-0.354-1.772
			c0.266-1.063,0.62-1.24,0.797-0.443c0.178,0.797-0.088-1.24,0-2.125c0.161-1.608,0.974-1.771,1.063-1.151
			c0.089,0.62-0.177-1.063,0.266-1.771c0.443-0.709,1.34-2.987,1.417-2.347c0.133,1.107-0.089-0.31,0.797-1.904
			c0.886-1.594,1.461-3.144,1.461-3.498c0-0.354,0.487,0.797,0.487,0.664c0-0.477-0.531-1.151-0.177-2.746
			c0.29-1.307,0.465-4.751,2.322-5.904c-0.733,18.612,7.398,22.362,15.552,22.362c8.225,0,15.935-4.305,15.485-22.899
			c2.56,0.603,2.744,4.742,3.068,6.205c0.355,1.594-0.176,2.268-0.176,2.746c0,0.132,0.487-1.019,0.487-0.665
			c0,0.354,0.575,1.904,1.461,3.498c0.886,1.594,0.665,3.011,0.797,1.904c0.078-0.64,0.973,1.638,1.418,2.347
			c0.442,0.709,0.177,2.391,0.266,1.771c0.087-0.62,0.902-0.457,1.063,1.151c0.087,0.886-0.178,2.923,0,2.126
			c0.177-0.797,0.53-0.62,0.797,0.443c0.266,1.063-0.355,1.771-0.355,1.771s0.841-0.93,0.71-0.089
			c-0.171,1.083-0.444,2.037-0.444,2.037c2.391-1.151-1.239-9.919-2.391-11.69c-1.152-1.771-3.188-6.022-2.215-5.757
			c0.975,0.266,1.152,0.354,0.621,0c-0.532-0.354-1.639-2.303-1.019-1.682c0.621,0.62,0.753,0.62,0.311-0.089
			c-0.444-0.708-0.886-2.922-0.886-2.922s1.639,0.753,0.974,0.443c-0.24-0.112-0.886-1.24-0.886-1.24s-0.354-1.063-1.24-2.214
			c-0.568-0.738-1.68-1.148-2.406-1.347c-0.01-0.246-0.016-0.483-0.029-0.734c-0.28-5.34-0.128-9.858-1.185-13.281
			c2.171,0.486,3.373,3.805,4.043,4.986c0.807,1.42,0.497,2.22,0.637,2.677c0.04,0.127,0.167-1.117,0.271-0.778
			c0.104,0.339,1.109,1.651,2.424,2.915c1.315,1.264,1.519,2.683,1.321,1.586c-0.115-0.634,1.413,1.28,2.043,1.828
			c0.632,0.547,0.872,2.234,0.775,1.615c-0.098-0.619,0.728-0.701,1.353,0.788c0.344,0.821,0.689,2.846,0.624,2.032
			c-0.064-0.814,0.326-0.749,0.892,0.189c0.568,0.938,0.183,1.797,0.183,1.797s0.53-1.136,0.651-0.293
			c0.154,1.085,0.175,2.077,0.175,2.077c1.947-1.803-4.098-9.117-5.719-10.472c-1.622-1.355-4.817-4.82-3.807-4.852
			c1.009-0.032,1.203,0,0.592-0.182c-0.613-0.183-2.243-1.72-1.468-1.309c0.776,0.411,0.903,0.371,0.27-0.176
			c-0.631-0.547-1.705-2.534-1.705-2.534s1.788,0.238,1.062,0.137c-0.263-0.036-1.211-0.925-1.211-0.925s-0.651-0.912-1.835-1.752
			c-0.559-0.397-1.347-0.535-2.025-0.573c-0.7-1.592-1.764-2.894-3.403-3.871c-2.042,2.195-5.841,3.679-10.192,3.679
			c-4.392,0-8.224-1.51-10.252-3.74c-1.523,0.945-2.555,2.203-3.266,3.743c-0.748-0.001-1.773,0.1-2.456,0.585
			c-1.184,0.841-1.836,1.752-1.836,1.752s-0.947,0.889-1.211,0.925c-0.726,0.101,1.062-0.137,1.062-0.137s-1.074,1.987-1.705,2.534
			c-0.631,0.547-0.504,0.586,0.271,0.175c0.774-0.41-0.856,1.127-1.468,1.31c-0.612,0.182-0.417,0.15,0.592,0.182
			c1.009,0.032-2.186,3.498-3.807,4.853c-1.621,1.355-7.667,8.67-5.719,10.472c0,0,0.02-0.993,0.175-2.077
			c0.12-0.844,0.651,0.293,0.651,0.293s-0.384-0.859,0.182-1.797c0.566-0.938,0.957-1.003,0.892-0.189
			c-0.065,0.814,0.28-1.211,0.624-2.032c0.626-1.49,1.451-1.407,1.354-0.788c-0.097,0.618,0.143-1.068,0.774-1.615
			c0.631-0.547,2.158-2.462,2.044-1.827c-0.198,1.097,0.006-0.323,1.321-1.586c1.315-1.264,2.32-2.577,2.424-2.915
			c0.104-0.339,0.232,0.905,0.271,0.778c0.14-0.456-0.169-1.257,0.637-2.676c0.713-1.253,2.023-4.92,4.457-5.042
			c-1.169,3.452-1.18,8.058-1.598,13.515c-0.032,0.413-0.053,0.808-0.076,1.208c-0.613,0.236-1.28,0.591-1.679,1.109
			c-0.886,1.151-1.24,2.214-1.24,2.214s-0.645,1.127-0.886,1.24c-0.664,0.31,0.974-0.442,0.974-0.442s-0.443,2.214-0.885,2.923
			c-0.443,0.708-0.31,0.708,0.31,0.089c0.62-0.62-0.487,1.328-1.019,1.683c-0.531,0.354-0.354,0.266,0.62,0
			c0.974-0.266-1.063,3.985-2.214,5.757c-1.151,1.771-4.782,10.539-2.391,11.69C276.605,132.06,276.333,131.105,276.162,130.023z"/>
		<path style="fill:#7F8C8D;" d="M285.622,79.218c-0.236-0.531-0.885-1.299-0.826-1.003c0.059,0.295,0.236,0.767,0.236,0.767
			c-0.709-0.236-3.838-3.779-3.838-3.779c-0.118,0.177-0.059,0.531-0.059,0.531c-1.24-0.649-2.066-2.48-2.066-2.48
			c-0.059,0.354-0.059,0.59-0.059,0.59c-1.181-1.122-0.767-1.712-0.945-1.594c-0.177,0.118-0.177,0.413-0.177,0.413
			c-0.473-0.472-0.354-1.653-0.591-1.476c-0.236,0.177-0.118,0.413-0.118,0.413c-0.59-0.59-0.472-1.417-0.472-1.417
			c-0.649,1.653,1.712,3.896,1.712,3.896l3.897,3.366c0,0,3.188,2.303,2.243,2.067c-0.944-0.236-1.246-0.496-0.059,0.295
			c1.239,0.827,1.948,1.889,1.948,1.889c-1.535-0.472,0.472,0.59,0.472,0.59c0.911,0.841,1.642,1.397,2.224,1.769
			c-0.116-0.344-0.182-0.699-0.218-1.059C287.397,81.706,285.785,79.583,285.622,79.218z"/>
		<path style="fill:#7F8C8D;" d="M314.794,82.288c0,0,2.008-1.063,0.473-0.59c0,0,0.708-1.063,1.947-1.889
			c1.188-0.791,0.887-0.531-0.058-0.295c-0.945,0.236,2.244-2.067,2.244-2.067l3.897-3.366c0,0,2.362-2.243,1.712-3.896
			c0,0,0.117,0.827-0.471,1.417c0,0,0.118-0.236-0.119-0.413c-0.235-0.177-0.118,1.003-0.591,1.476c0,0,0-0.295-0.176-0.413
			c-0.177-0.118,0.235,0.473-0.945,1.594c0,0,0-0.236-0.058-0.59c0,0-0.827,1.83-2.067,2.48c0,0,0.059-0.354-0.06-0.531
			c0,0-3.129,3.543-3.838,3.779c0,0,0.178-0.472,0.237-0.767c0.059-0.295-0.59,0.472-0.826,1.003
			c-0.176,0.396-2.061,2.86-3.693,4.088c-0.059,0.354-0.171,0.698-0.308,1.035C312.733,83.993,313.614,83.377,314.794,82.288z"/>
		<path style="fill:#7F8C8D;" d="M296.677,70.571c-0.021-0.039-0.041-0.074-0.062-0.114c-0.165-0.291-0.339-0.604-0.456-0.938
			c-0.122-0.332-0.191-0.681-0.178-1.007c0.003-0.163,0.038-0.317,0.078-0.46c0.047-0.141,0.108-0.271,0.181-0.382
			c0.072-0.112,0.153-0.202,0.23-0.282c0.079-0.076,0.153-0.137,0.215-0.187c0.132-0.09,0.207-0.141,0.207-0.141l-0.019-0.035
			c0,0-0.083,0.044-0.225,0.12c-0.069,0.044-0.152,0.099-0.244,0.169c-0.089,0.074-0.186,0.161-0.277,0.273
			c-0.184,0.219-0.342,0.54-0.378,0.905c-0.046,0.363,0.001,0.754,0.101,1.122c0.098,0.369,0.231,0.729,0.395,1.043
			c0.024,0.044,0.051,0.08,0.076,0.121c0.084,0.01,0.168,0.02,0.25,0.036C296.597,70.731,296.635,70.65,296.677,70.571z"/>
		<path style="fill:#7F8C8D;" d="M305.5,70.185c0.032-0.186,0.077-0.371,0.078-0.564c0.022-0.19,0.006-0.38-0.012-0.566
			c-0.003-0.187-0.073-0.362-0.106-0.533c-0.039-0.172-0.122-0.323-0.18-0.471c-0.054-0.151-0.153-0.269-0.22-0.389
			c-0.075-0.116-0.133-0.228-0.211-0.31c-0.072-0.085-0.133-0.16-0.185-0.221c-0.101-0.121-0.16-0.191-0.16-0.191l-0.032,0.027
			c0,0,0.049,0.075,0.136,0.208c0.042,0.065,0.094,0.145,0.154,0.236c0.067,0.087,0.109,0.204,0.168,0.323
			c0.051,0.123,0.132,0.244,0.164,0.393c0.035,0.147,0.105,0.291,0.126,0.454c0.015,0.162,0.068,0.325,0.053,0.495
			c0.002,0.17,0.001,0.34-0.034,0.508c-0.018,0.17-0.074,0.333-0.123,0.492c-0.051,0.136-0.106,0.266-0.164,0.393
			c0.159-0.031,0.322-0.051,0.488-0.06C305.461,70.335,305.483,70.261,305.5,70.185z"/>
		<path style="fill:#7F8C8D;" d="M300.678,89.349c6.197,0,11.239-3.055,11.239-6.81c0-2.524-0.587-7.146-4.515-9.736l-0.246-0.163
			l0.18-0.234c0.527-0.687-0.454-1.46-1.697-1.46c-0.309,0-0.605,0.045-0.881,0.132l-0.241,0.077l-0.097-0.234
			c-0.326-0.794-1.896-1.392-3.653-1.392c-2.162,0-3.661,0.846-3.705,1.635l-0.019,0.345l-0.331-0.096
			c-0.258-0.075-0.532-0.113-0.814-0.113c-1.167,0-2.11,0.683-1.78,1.332l0.104,0.203l-0.181,0.139
			c-3.637,2.796-4.599,7.478-4.599,9.564C289.439,86.294,294.481,89.349,300.678,89.349z"/>
	</g>
	<path style="fill-rule:evenodd;clip-rule:evenodd;fill:#7F8C8D;" d="M79.606,77.526c0.724-0.432,3.643-1.413,3.543,0.521
		c-0.032,0.627-2.448,2.006-4.273,4.378c-1.805,2.345-3.8,7.523-3.562,11.523c0.483,8.095,5.735,15.767,11.838,19.592
		c1.268,0.795,6.292,2.319,6.836,2.028c0.742,0.999,1.749,1.488,2.918,2.397c1.085,0.844,2.017,1.176,1.98,2.918
		c-0.04,1.898-0.885,3.515-2.211,4.22c-1.343-0.003-3.244,0.653-5.019-0.306c-0.537-0.29-2.459,1.112-2.719,1.423
		c0.838-0.027,1.088,0.046,1.331,0.148c0.144,0.06-0.557-0.079-0.547,0.291c0.829,0.133,4.417,0.119,4.832,0.158
		c0.188,0.148-0.795,0.465-0.449,0.846c1.455-0.414,4.407,0.664,5.303-0.944c1.464,0.078,1.981-0.025,3.439,0.208
		c-0.37-0.871-1.458-1.58-3.146-1.619c-0.64-0.015,1.688-4.613,1.999-6.824c0.819-0.108,0.817,0.811,1.042,1.251
		c2.961,5.764,11.929,10.324,9.48,7.57c2.846,2.632,4.652,2.938,2.571,0.306c0.722,0.635,2.953,2.242,4.104,1.817
		c0.08-0.246,0.205-0.72,0-0.938c0.904,0.277,1.615,0.747,2.814,0.73c0.264-0.187,0.492-0.411,0.417-0.938
		c1.085,0.115,1.785,1.223,2.918,0.73c1.681-0.731-0.352-3.237-0.716-4.043c0.428-0.938-0.049-1.397-0.049-1.397
		c0.085-0.837-0.592-2.478-1.631-3.107c-0.468-1.833-1.46-3.297-2.814-4.69c-1.083-1.114-1.861-1.317-2.41-2.67
		c-0.454-1.119-1.477-3.478-1.968-4.834c-0.542-1.499-1.274-2.535-1.355-4.377c-0.272-0.562-0.874-0.793-0.73-1.772
		c-0.309-0.543-0.994-0.591-0.729-1.459c-0.436-0.363-0.815-0.783-1.355-1.042c0.132-0.25,0.381-0.384,0.313-0.834
		c-0.296-0.399-0.692-0.698-1.147-0.938c-6.048-7.624-10.587-7.084-13.033-9.551c-1.04-1.049-1.341-1.237-1.559-2.956
		c-0.213-1.675-0.045-3.122-0.417-4.482c-0.493-1.8-1.281-6.929-3.648-9.172c-1.496-1.417-3.611-2.757-6.876-1.941
		c-1.548,0.387-3.428,0.878-3.338,3.192c0.01,0.271,0.033,0.839,0.033,0.839c-0.275,0-0.842,1.014-0.7,1.404
		C80.919,75.183,79.702,76.352,79.606,77.526z"/>
</g>
</svg>
