<?xml version="1.0" encoding="iso-8859-1"?>
<!-- Generator: Adobe Illustrator 18.1.1, SVG Export Plug-In . SVG Version: 6.00 Build 0)  -->
<svg version="1.1" id="Layer_1" xmlns="http://www.w3.org/2000/svg" xmlns:xlink="http://www.w3.org/1999/xlink" x="0px" y="0px"
	 viewBox="0 0 140 140" style="enable-background:new 0 0 140 140;" xml:space="preserve">
<path style="fill:#C0392B;" d="M70,0C31.402,0,0,31.402,0,70c0,38.598,31.402,70,70,70c38.598,0,70-31.402,70-70
	C140,31.402,108.598,0,70,0z M70,10c14.797,0,28.351,5.395,38.824,14.308l-84.516,84.516C15.395,98.351,10,84.797,10,70
	C10,36.916,36.916,10,70,10z M70,130c-14.797,0-28.351-5.396-38.824-14.308l84.516-84.516C124.605,41.65,130,55.203,130,70
	C130,103.084,103.084,130,70,130z"/>
</svg>
