<?xml version="1.0" encoding="iso-8859-1"?>
<!-- Generator: Adobe Illustrator 18.1.1, SVG Export Plug-In . SVG Version: 6.00 Build 0)  -->
<svg version="1.1" id="Layer_1" xmlns="http://www.w3.org/2000/svg" xmlns:xlink="http://www.w3.org/1999/xlink" x="0px" y="0px"
	 viewBox="0 0 43.854 43.854" style="enable-background:new 0 0 43.854 43.854;" xml:space="preserve">
<path style="fill:#FFFFFF;" d="M21.927,0C9.817,0,0,9.817,0,21.927s9.817,21.927,21.927,21.927c12.11,0,21.927-9.817,21.927-21.927
	S34.037,0,21.927,0z M27.724,35.259c-1.866-0.141-14.029-3.062-19.152-17.531c-1.037-3.034,0.245-7.926,3.715-9.018
	c3.521-1.138,5.323,3.782,5.836,6.893l-3.072,3.068c0,0-0.087,1.918,4.116,6.121c4.199,4.201,6.119,4.115,6.119,4.115l3.569-3.566
	c2.255,0.476,6.775,3.348,6.775,3.348C35.07,32.93,32.195,35.732,27.724,35.259z"/>
</svg>
