<?xml version="1.0" encoding="utf-8"?>
<!-- Generated by IcoMoon.io -->
<!DOCTYPE svg PUBLIC "-//W3C//DTD SVG 1.1//EN" "http://www.w3.org/Graphics/SVG/1.1/DTD/svg11.dtd">
<svg version="1.1" xmlns="http://www.w3.org/2000/svg" xmlns:xlink="http://www.w3.org/1999/xlink" width="46" height="32" viewBox="0 0 46 32">
<path fill="#DB2724" d="M45.497 17.718c0 3.682-0.454 7.363-0.454 7.363s-0.445 3.135-1.809 4.516c-1.73 1.812-3.669 1.821-4.559 1.927-6.367 0.46-15.927 0.475-15.927 0.475s-11.829-0.108-15.469-0.457c-1.013-0.19-3.286-0.133-5.017-1.945-1.364-1.381-1.808-4.516-1.808-4.516s-0.455-3.683-0.455-7.364v-3.451c0-3.682 0.455-7.363 0.455-7.363s0.444-3.136 1.808-4.516c1.731-1.812 3.669-1.821 4.559-1.927 6.367-0.46 15.917-0.46 15.917-0.46h0.020c0 0 9.551 0 15.917 0.46 0.889 0.106 2.828 0.115 4.559 1.927 1.364 1.38 1.809 4.516 1.809 4.516s0.454 3.682 0.454 7.363v3.451zM18.051 21.901l12.292-6.37-12.293-6.414 0.002 12.784z"></path>
</svg>
